<mxfile>
    <diagram id="Pm9djMvFo91G5wfqixfO" name="Page-1">
        <mxGraphModel dx="1507" dy="868" grid="0" gridSize="10" guides="1" tooltips="1" connect="1" arrows="1" fold="1" page="1" pageScale="1" pageWidth="1169" pageHeight="827" background="#FFFFFF" math="0" shadow="0">
            <root>
                <mxCell id="0"/>
                <mxCell id="1" parent="0"/>
                <mxCell id="2" value="&lt;font style=&quot;font-size: 14px&quot;&gt;réception d'une requête utilisateur (saisie dans la barre de recherche + badges sélectionnés)&lt;/font&gt;" style="rounded=1;whiteSpace=wrap;html=1;fillColor=#c4dcff;fontColor=#032250;strokeColor=#032250;strokeWidth=2;spacing=10;" parent="1" vertex="1">
                    <mxGeometry x="70" y="240" width="280" height="80" as="geometry"/>
                </mxCell>
                <mxCell id="3" value="&lt;font style=&quot;font-size: 14px&quot;&gt;la requête utilisateur est décomposée en une liste de &lt;b&gt;&lt;font face=&quot;Courier New&quot;&gt;keywords&lt;/font&gt;&lt;/b&gt; dont sont éliiminés les mots non signicatifs (&lt;i&gt;stop words&lt;/i&gt;)&lt;/font&gt;" style="rounded=1;whiteSpace=wrap;html=1;fillColor=#c4dcff;fontColor=#032250;strokeColor=#032250;strokeWidth=2;spacing=10;" parent="1" vertex="1">
                    <mxGeometry x="70" y="360" width="280" height="100" as="geometry"/>
                </mxCell>
                <mxCell id="4" value="&lt;font style=&quot;font-size: 14px&quot;&gt;on place la totalité des recettes en base dans un ensemble &lt;font face=&quot;Courier New&quot;&gt;&lt;b&gt;filteredRecipes&lt;/b&gt;&lt;/font&gt;&lt;/font&gt;" style="rounded=1;whiteSpace=wrap;html=1;fillColor=#c4dcff;fontColor=#032250;strokeColor=#032250;strokeWidth=2;spacing=10;" parent="1" vertex="1">
                    <mxGeometry x="70" y="500" width="280" height="80" as="geometry"/>
                </mxCell>
                <mxCell id="5" value="" style="rhombus;whiteSpace=wrap;html=1;strokeColor=#032250;strokeWidth=2;fillColor=#c4dcff;fontColor=#032250;" parent="1" vertex="1">
                    <mxGeometry x="170" y="620" width="80" height="40" as="geometry"/>
                </mxCell>
                <mxCell id="6" value="&lt;span style=&quot;font-size: 14px&quot;&gt;pour chaque &lt;font face=&quot;Courier New&quot;&gt;&lt;b&gt;keyword&lt;/b&gt;&lt;/font&gt;, on créé un ensemble vide &lt;b&gt;&lt;font face=&quot;Courier New&quot;&gt;keywordRecipes&lt;/font&gt;&lt;/b&gt;&lt;/span&gt;" style="rounded=1;whiteSpace=wrap;html=1;fillColor=#c4dcff;fontColor=#032250;strokeColor=#032250;strokeWidth=2;spacing=10;" parent="1" vertex="1">
                    <mxGeometry x="390" y="600" width="200" height="80" as="geometry"/>
                </mxCell>
                <mxCell id="7" value="" style="rhombus;whiteSpace=wrap;html=1;strokeColor=#032250;strokeWidth=2;fillColor=#c4dcff;fontColor=#032250;" parent="1" vertex="1">
                    <mxGeometry x="450" y="720" width="80" height="40" as="geometry"/>
                </mxCell>
                <mxCell id="8" value="&lt;span style=&quot;font-size: 14px&quot;&gt;pour chaque recette en base&lt;/span&gt;" style="rounded=1;whiteSpace=wrap;html=1;fillColor=#c4dcff;fontColor=#032250;strokeColor=#032250;strokeWidth=2;spacing=10;" parent="1" vertex="1">
                    <mxGeometry x="726" y="700" width="200" height="80" as="geometry"/>
                </mxCell>
                <mxCell id="9" value="&lt;font style=&quot;font-size: 14px&quot;&gt;&lt;font face=&quot;Courier New&quot;&gt;&lt;b&gt;keyword&lt;/b&gt;&lt;/font&gt; dans le nom de la recette OU la liste des ingrédients OU la liste des appareils OU la liste des ustensiles OU la description de la recette ?&lt;/font&gt;" style="rhombus;whiteSpace=wrap;html=1;strokeColor=#032250;strokeWidth=2;fillColor=#c4dcff;fontColor=#032250;spacing=64;" parent="1" vertex="1">
                    <mxGeometry x="625" y="820" width="402" height="210" as="geometry"/>
                </mxCell>
                <mxCell id="10" value="&lt;span style=&quot;font-size: 14px&quot;&gt;ajouter la recette à l'ensemble &lt;b&gt;&lt;font face=&quot;Courier New&quot;&gt;keywordRecipes&lt;/font&gt;&lt;/b&gt;&lt;/span&gt;" style="rounded=1;whiteSpace=wrap;html=1;fillColor=#c4dcff;fontColor=#032250;strokeColor=#032250;strokeWidth=2;spacing=10;" parent="1" vertex="1">
                    <mxGeometry x="726" y="1070" width="200" height="80" as="geometry"/>
                </mxCell>
                <mxCell id="11" value="&lt;span style=&quot;font-size: 14px&quot;&gt;remplacer l'ensemble &lt;b&gt;&lt;font face=&quot;Courier New&quot;&gt;filteredRecipes&lt;/font&gt;&lt;/b&gt; par son intersection avec &lt;font face=&quot;Courier New&quot;&gt;&lt;b&gt;keywordRecipes&lt;/b&gt;&lt;/font&gt;&lt;/span&gt;" style="rounded=1;whiteSpace=wrap;html=1;fillColor=#c4dcff;fontColor=#032250;strokeColor=#032250;strokeWidth=2;spacing=10;" parent="1" vertex="1">
                    <mxGeometry x="390" y="840" width="200" height="80" as="geometry"/>
                </mxCell>
                <mxCell id="12" value="&lt;span style=&quot;font-size: 14px&quot;&gt;les recettes correspondant à la recherche utilisateur sont celles restant dans &lt;b&gt;&lt;font face=&quot;Courier New&quot;&gt;filteredRecipes&lt;/font&gt;&lt;/b&gt;&lt;/span&gt;" style="rounded=1;whiteSpace=wrap;html=1;fillColor=#c4dcff;fontColor=#032250;strokeColor=#032250;strokeWidth=2;spacing=10;" parent="1" vertex="1">
                    <mxGeometry x="70" y="1161" width="280" height="80" as="geometry"/>
                </mxCell>
                <mxCell id="16" value="&lt;font style=&quot;font-size: 35px&quot;&gt;&lt;b&gt;Algorithme 1 :&lt;/b&gt; &lt;i&gt;parcours de toutes les recettes en base&lt;/i&gt;&lt;/font&gt;" style="text;html=1;strokeColor=none;fillColor=none;align=center;verticalAlign=middle;whiteSpace=wrap;rounded=0;fontColor=#032250;" parent="1" vertex="1">
                    <mxGeometry x="70" y="80" width="550" height="120" as="geometry"/>
                </mxCell>
                <mxCell id="17" value="" style="endArrow=classicThin;html=1;fontColor=#032250;strokeColor=#032250;strokeWidth=2;endFill=1;exitX=0.5;exitY=1;exitDx=0;exitDy=0;entryX=0.5;entryY=0;entryDx=0;entryDy=0;" parent="1" source="8" target="9" edge="1">
                    <mxGeometry width="50" height="50" relative="1" as="geometry">
                        <mxPoint x="371" y="810" as="sourcePoint"/>
                        <mxPoint x="471" y="870" as="targetPoint"/>
                    </mxGeometry>
                </mxCell>
                <mxCell id="18" value="" style="endArrow=classicThin;html=1;fontColor=#032250;strokeColor=#032250;strokeWidth=2;endFill=1;exitX=1;exitY=0;exitDx=0;exitDy=0;entryX=0;entryY=0.25;entryDx=0;entryDy=0;" parent="1" source="5" target="6" edge="1">
                    <mxGeometry width="50" height="50" relative="1" as="geometry">
                        <mxPoint x="516" y="400" as="sourcePoint"/>
                        <mxPoint x="616" y="460" as="targetPoint"/>
                        <Array as="points">
                            <mxPoint x="230" y="620"/>
                        </Array>
                    </mxGeometry>
                </mxCell>
                <mxCell id="19" value="" style="endArrow=classicThin;html=1;fontColor=#032250;strokeColor=#032250;strokeWidth=2;endFill=1;exitX=0.5;exitY=1;exitDx=0;exitDy=0;entryX=0.5;entryY=0;entryDx=0;entryDy=0;" parent="1" source="4" target="5" edge="1">
                    <mxGeometry width="50" height="50" relative="1" as="geometry">
                        <mxPoint x="526" y="410" as="sourcePoint"/>
                        <mxPoint x="626" y="470" as="targetPoint"/>
                    </mxGeometry>
                </mxCell>
                <mxCell id="20" value="" style="endArrow=classicThin;html=1;fontColor=#032250;strokeColor=#032250;strokeWidth=2;endFill=1;exitX=0.5;exitY=1;exitDx=0;exitDy=0;entryX=0.5;entryY=0;entryDx=0;entryDy=0;" parent="1" source="3" target="4" edge="1">
                    <mxGeometry width="50" height="50" relative="1" as="geometry">
                        <mxPoint x="536" y="420" as="sourcePoint"/>
                        <mxPoint x="636" y="480" as="targetPoint"/>
                    </mxGeometry>
                </mxCell>
                <mxCell id="21" value="" style="endArrow=classicThin;html=1;fontColor=#032250;strokeColor=#032250;strokeWidth=2;endFill=1;exitX=0.5;exitY=1;exitDx=0;exitDy=0;entryX=0.5;entryY=0;entryDx=0;entryDy=0;" parent="1" source="2" target="3" edge="1">
                    <mxGeometry width="50" height="50" relative="1" as="geometry">
                        <mxPoint x="546" y="430" as="sourcePoint"/>
                        <mxPoint x="646" y="490" as="targetPoint"/>
                    </mxGeometry>
                </mxCell>
                <mxCell id="22" value="" style="endArrow=classicThin;html=1;fontColor=#032250;strokeColor=#032250;strokeWidth=2;endFill=1;exitX=1;exitY=0.5;exitDx=0;exitDy=0;entryX=1;entryY=0.75;entryDx=0;entryDy=0;" parent="1" source="9" target="8" edge="1">
                    <mxGeometry width="50" height="50" relative="1" as="geometry">
                        <mxPoint x="425" y="820" as="sourcePoint"/>
                        <mxPoint x="525" y="880" as="targetPoint"/>
                        <Array as="points">
                            <mxPoint x="1084" y="925"/>
                            <mxPoint x="1084" y="760"/>
                        </Array>
                    </mxGeometry>
                </mxCell>
                <mxCell id="23" value="" style="endArrow=classicThin;html=1;fontColor=#032250;strokeColor=#032250;strokeWidth=2;endFill=1;exitX=0.5;exitY=1;exitDx=0;exitDy=0;entryX=0.5;entryY=0;entryDx=0;entryDy=0;" parent="1" source="9" target="10" edge="1">
                    <mxGeometry width="50" height="50" relative="1" as="geometry">
                        <mxPoint x="391" y="830" as="sourcePoint"/>
                        <mxPoint x="491" y="890" as="targetPoint"/>
                    </mxGeometry>
                </mxCell>
                <mxCell id="24" value="" style="endArrow=classicThin;html=1;fontColor=#032250;strokeColor=#032250;strokeWidth=2;endFill=1;exitX=0.5;exitY=1;exitDx=0;exitDy=0;entryX=0.5;entryY=0;entryDx=0;entryDy=0;" parent="1" source="5" target="12" edge="1">
                    <mxGeometry width="50" height="50" relative="1" as="geometry">
                        <mxPoint x="146" y="847" as="sourcePoint"/>
                        <mxPoint x="166" y="907" as="targetPoint"/>
                    </mxGeometry>
                </mxCell>
                <mxCell id="25" value="" style="endArrow=classicThin;html=1;fontColor=#032250;strokeColor=#032250;strokeWidth=2;endFill=1;exitX=1;exitY=0;exitDx=0;exitDy=0;entryX=0;entryY=0.25;entryDx=0;entryDy=0;" parent="1" source="7" target="8" edge="1">
                    <mxGeometry width="50" height="50" relative="1" as="geometry">
                        <mxPoint x="546" y="430" as="sourcePoint"/>
                        <mxPoint x="735" y="800" as="targetPoint"/>
                        <Array as="points">
                            <mxPoint x="510" y="720"/>
                        </Array>
                    </mxGeometry>
                </mxCell>
                <mxCell id="26" value="" style="endArrow=classicThin;html=1;fontColor=#032250;strokeColor=#032250;strokeWidth=2;endFill=1;exitX=0.5;exitY=1;exitDx=0;exitDy=0;entryX=0.5;entryY=0;entryDx=0;entryDy=0;" parent="1" source="6" target="7" edge="1">
                    <mxGeometry width="50" height="50" relative="1" as="geometry">
                        <mxPoint x="556" y="440" as="sourcePoint"/>
                        <mxPoint x="656" y="500" as="targetPoint"/>
                    </mxGeometry>
                </mxCell>
                <mxCell id="28" value="" style="endArrow=classicThin;html=1;fontColor=#032250;strokeColor=#032250;strokeWidth=2;endFill=1;exitX=0;exitY=0.5;exitDx=0;exitDy=0;entryX=1;entryY=1;entryDx=0;entryDy=0;" parent="1" source="11" target="5" edge="1">
                    <mxGeometry width="50" height="50" relative="1" as="geometry">
                        <mxPoint x="166" y="867" as="sourcePoint"/>
                        <mxPoint x="186" y="927" as="targetPoint"/>
                        <Array as="points">
                            <mxPoint x="230" y="880"/>
                        </Array>
                    </mxGeometry>
                </mxCell>
                <mxCell id="29" value="" style="endArrow=classicThin;html=1;fontColor=#032250;strokeColor=#032250;strokeWidth=2;endFill=1;exitX=0.5;exitY=1;exitDx=0;exitDy=0;entryX=0.5;entryY=0;entryDx=0;entryDy=0;" parent="1" source="7" target="11" edge="1">
                    <mxGeometry width="50" height="50" relative="1" as="geometry">
                        <mxPoint x="176" y="877" as="sourcePoint"/>
                        <mxPoint x="196" y="937" as="targetPoint"/>
                    </mxGeometry>
                </mxCell>
                <mxCell id="30" value="" style="endArrow=classicThin;html=1;fontColor=#032250;strokeColor=#032250;strokeWidth=2;endFill=1;entryX=1;entryY=1;entryDx=0;entryDy=0;exitX=0.25;exitY=1;exitDx=0;exitDy=0;" parent="1" source="8" target="7" edge="1">
                    <mxGeometry width="50" height="50" relative="1" as="geometry">
                        <mxPoint x="765" y="750" as="sourcePoint"/>
                        <mxPoint x="206" y="947" as="targetPoint"/>
                        <Array as="points">
                            <mxPoint x="776" y="800"/>
                            <mxPoint x="510" y="800"/>
                        </Array>
                    </mxGeometry>
                </mxCell>
                <mxCell id="31" value="&lt;font style=&quot;font-size: 16px&quot;&gt;&lt;b&gt;Oui&lt;/b&gt;&lt;/font&gt;" style="text;html=1;strokeColor=none;fillColor=none;align=center;verticalAlign=middle;whiteSpace=wrap;rounded=0;fontColor=#032250;" parent="1" vertex="1">
                    <mxGeometry x="784" y="1038" width="40" height="20" as="geometry"/>
                </mxCell>
                <mxCell id="32" value="&lt;font style=&quot;font-size: 16px&quot;&gt;&lt;b&gt;Non&lt;br&gt;&lt;/b&gt;&lt;/font&gt;" style="text;html=1;strokeColor=none;fillColor=none;align=center;verticalAlign=middle;whiteSpace=wrap;rounded=0;fontColor=#032250;" parent="1" vertex="1">
                    <mxGeometry x="1032.5" y="900" width="40" height="20" as="geometry"/>
                </mxCell>
                <mxCell id="33" value="&lt;span style=&quot;font-size: 14px&quot;&gt;Pour accroître les chances de répondre au souhait de utilisateur, le filtrage s'effectuera sur des mots dont tous les accents ont été retirés, aussi bien dans la requête utilisateur que dans les items des recettes.&lt;/span&gt;" style="shape=note;whiteSpace=wrap;html=1;backgroundOutline=1;darkOpacity=0.05;strokeWidth=2;fillColor=#fed8b2;strokeColor=#4d2a07;fontColor=#4d2a07;spacing=10;" parent="1" vertex="1">
                    <mxGeometry x="650" y="540" width="413" height="100" as="geometry"/>
                </mxCell>
                <mxCell id="34" value="" style="endArrow=classicThin;html=1;fontColor=#032250;strokeColor=#032250;strokeWidth=2;endFill=1;exitX=1;exitY=0.5;exitDx=0;exitDy=0;entryX=1;entryY=0.25;entryDx=0;entryDy=0;" parent="1" source="10" target="8" edge="1">
                    <mxGeometry width="50" height="50" relative="1" as="geometry">
                        <mxPoint x="1037" y="935" as="sourcePoint"/>
                        <mxPoint x="936.0000000000002" y="770" as="targetPoint"/>
                        <Array as="points">
                            <mxPoint x="1104" y="1110"/>
                            <mxPoint x="1104" y="720"/>
                        </Array>
                    </mxGeometry>
                </mxCell>
                <mxCell id="35" value="" style="shape=image;verticalLabelPosition=bottom;labelBackgroundColor=#ffffff;verticalAlign=top;aspect=fixed;imageAspect=0;image=data:image/png,iVBORw0KGgoAAAANSUhEUgAAAggAAAC2CAYAAAC8o3VPAAAgAElEQVR4Xuy993MkSXol+DKhtdZaldaqS+uqLtFyhsMZiqGRPO6Se1zu3a3R9qf7K85s75ZiOMPR02xV3V1doktrrVAKBa211jLP3heZaCAzIjMSSBQSgLtZG4fdiQj35x7uzz/xPovNZrNBNYWAQkAhoBBQCCgEFAJTELAogqDWg0JAIaAQUAgoBBQCzggogqDWhEJAIaAQUAgoBBQCLggogqAWhUJgiSBAb6JtYhy2CRswMQHxLk71MFossFgsAP+v1Tr5zxKBRw1TIaAQcEJAEQS1JBQCixgB28QEJsbHMT4yjNG+Pgx2dGC4qwNDXV0YHxrC+PCwEAUSg4DgYASGhyEoIgohMbEIT0xESGwcAoKCYA0MFOKgmkJAIbB0EFAEYenMtRrpEkKAloLx4REM9/agt64OvXU16G9uEoIw0t2Fkd4ejA0PYWJkRLMiWCywBgUhMCQcQRGhCI6ORVhiMiLTMxCdmYnorGwER0XBGhyiWRlUUwgoBBY9AoogLPopVgNcSgjQGjA+PITB9nZ0V1Wgq7ICPVWVQg5G+3pBi4LZZgkIQHBkFMJTUhGTl4+4giLE5hciJDparA3KomAWSfU7hcDCREARhIU5b6rXCgEXBOhKGO7pRldFOdpePkdXaQn6W5rFlTAt1sBb7Oh+CAlBZHom4lesQuLKVYjJzUdwZKTEKaimEFAILE4EFEFYnPOqRrWUEKDVYHQUA63NaC1+huanj9FbU43R/r7ZEQNnDC0WBEVGihUhdfM2JK5ajZDYWAQEBS8ltNVYFQJLBgFFEJbMVKuBLkoEbDaMjYygr74OTY8eoPnRAww0N2JibGzOhhsQHIKI9Awkb9yE5HUbEJ2RJRYG1RQCCoHFhYAiCItrPtVolhgCzELoqa9D491bQg4G29tgGx+fcxQYnxCakIjkDRuRvm0nYrJzFEmYc9TVCxQCbxcBRRDeLt7qbQoBnyHADITexgY03L2Nxnu3MURy4CkIUdIZQ+QwtwYFwxoYAAuYlWDDBLURxsYwPjIiaZETo6Nu+8r4A5KElE1bkL5jN6IzsyQlUjWFgEJgcSCgCMLimEc1iiWGAK0EDEBsuHcHDbdvYKC5yS05sAQGIig8QmIGwhOTEZaUItkIQRERgNUisQp0VTDTYbizE4OtLWKNGOnrw/jQoOGzaUkIS0pG2js7kLFjNyKTU8B/p5pCQCGw8BFQBGHhz6EawVJDwGaTg5vBiNUXz6OnutLQrWCxBkhgoZaqWIDYvHyEJyUhJDoWgWGhYk2QdEWbDRPjYxgbHsZYfz+GujrR19CA7upK9FZXYbC9FWODg7pIU0QpMjMLWXsPIm3zVoTExKgUyKW2JtV4FyUCiiAsymlVg1rMCND031VVKeSg+fFDueHrNWtgEEITk5CwYiUSV61BdHYOwuITTGkY0FUx0t+PgZZmdFWUSdpkd0U5Rnp6RK7ZuQWEhiJ++UrkHDwq7wsMDV3MU6DGphBYEggogrAkplkN0m8R4M19TLu5M+CQ/n/b+Jj8O0cldovVAivN9harqB3yvzU/eYSai+cx2NYm8QMuB3ZwCCIzMpG8fiOS1m1AVEYmAplp4KUKIrUV6HborqlGy9MnaHvxTHNnOAdCWiwiz5yyeSuy9uxHRGoqbOMTEscwPjoi/1eLabDBEhAo+gkUW2IsRGBIKKzBwUqh0W8XqerYUkVAEYSlOvNq3POHAHULxsakNgJN+cPd3RjsbMdwV5f8OyohjtHvPzYOxg/yQOVhSlM+3QWWwCB0lZei49VLIRPOjZaDqKxspO/cjeS16xGemCTEYsbNkUrZ2IDmxw/QcOc2BltcYx4YexCekoaUTZtFoplBlLRCkGCMDQxgdKBfCkXJWIKDEBwVLa6O0Ph4sWxQyjkkKhq0Rig55xnPlvpDhYDPEFAEwWdQqgcpBDwgYD9ohzo70N/UhN66WvTUVGGwo11Ejah4KDftsTGJB2DFRWnWAFgDrLDQghAcJISB8QBjA/0uL5RDOjlFsgrSt+/UyIGPggYpxtTXUI+6G9fQcPeW1HRwISdBQQiJjkFgWLgUiZqwWw/4t7axUa0wVEAAGBvhsCAEhYULSYhISUNUTg6iMrIQFhevkSEvLR5qDSoEFAK+Q0ARBN9hqZ6kEDBEgIf+YFenEIKOktforqzAEIlBb4/mVvCUnmgGW4tFbuWpW95B1r4DknYoVRh91mwYGxpGZ1kpqi+dR1vxM0mHnHVj6iULRYWFIzg2DlGZWYgrXIb4wiJEpKUjQFWSnDXE6gEKgZkgoAjCTFBTf6MQMIuAzYbRoUH01tai9UUx2l89F+uBFE7ysaARb+Z0LeQdPYHUTVu0QEEf38BpAWCgYtOj+6i6cE4UHGdV58EZR4sFgaFhCImLQ2xBEdK2voOY7FxJz1TWBLOLTv1OIeAbBBRB8A2O6ikKARcEaBUY7u1Fx5sSND24g66yUgx3dc6ZDDK1DlhQiXoEqZu3ICwh0ccWBG2ItIbQPVJ18bwoODK40teNZCAwPAJR2dlIXrcJSWvXS+Cjsib4Gmn1PIWAMQKKIKjVoRCYAwRIDoa6u9Dy7Kkcoiy5zJgBR2bCHLxSrAW0GkSkZSB181bJKIhISvY9SaAVob8PjQ/uoer8GYlL8KkVYQo4DK4MY6rmyjVI37ELsbl5mlqjjy0jczIf6qEKgQWOgCIIC3wCVff9D4FJcvD0CepvXkNPdZXmq7e5piNO673FIoc5U/8CghzFj7RKjcxs8CR97HgWD1UG/KXt2IX0bdsRnpDoc3XDibFRdFVWouLsabQ8uu9RxTEwLAwBgcykoKwzJAiTmIj1wQMuTIkMjolF0pr1yNq7HzGKJPjfolc9WpQIKIKwKKdVDWreELDZMNzTg5ZnT1B7/Qp6qircmuB5+AVGRCI0Ll6L3I+KkkBDyiKzkWww5XG4p1skkIe7uzDU2S5pg+6auBvSMpC5Z7/48UPj4nzqw6clhFLMjEOoufSd/hitVokdiM7JQ2RaOoJCw+03f5sEZjIOY7CzQ9I7h7o6MNLlmhXhGKOQhOgY0XTI2ndQLAm+DcCctxWjXqwQ8FsEFEHw26lRHVuICIwODKC1+Clqrl4SrQKmLuo1+tiDoqIRk5OHqJxcUTlk1kFQeLgmJBRgndQ/onIhD1QGB/Y21KOz7I2oGg60NBnKH/OdtCTwcM49ckzKMvPZvmwjvb2ou3kNlee+lYwM50ZLSMLK1cg9fEzGJzUatLpQmrTz2Ji4Kvqbm0TSuau0FL0NtYZEQbMkxCBl01bkHDyMqPRMEVxSTSGgEJgbBBRBmBtc1VOXIAJ0BXRVVohfvq34KcaGh3TN51QNZJxA0pq1SNm4RYLvRE0wUFMY1G02m1gT+A5aE7qqKtD2vBidb16LHLJRRgRJQdL6jcg9chzROblakJ+PGslQ48N7qDx7WjebgdkISRs2o/Dk+4jKyhIdB+fGMWlKkkOS3dH6vBjtlHWuKhehJecmxaESk5Cxay+y9x0Q9UaV3eCjCVWPUQg4IaAIgloSCgFfIGCzYaC9DTXXLqP+xjXtRq3jWw8IDUPcsuVI274LSStWiQneWyEjmvcpQDTY0SHWCooW9dbUSJyC64lqQUh8PLL2HED23v0IjU/w2YFKsabmp48kDqG3qtIlAFMIwkY7QcjUJwhT+0uSw5RQakQwQ4JKkWODrq4Uh2Uk59ARKTVNcqVIgi8WsXqGQmA6AoogqBWhEPABAmNDQ2h78RwV506jq7REN2iP5CB+5RrkHDyE+MJlYODebA42SaPs6UH765di6u8sLcG4TsVF3rqjs/NQcPIDsVrwvb5ojI1oKX6KyjOn0V1RNmuC4OgT61LQElNz+QJanz3WjbfgGBLXbkD+sZNSoVK5Gnwxo+oZCgFFENQaUAj4FgGbDf0tzai6dAENN69hpLfH5fmUFY5btkLiARKW26sd+iJVj0JMAwNoef4M1Ze+Q3d5qUu2AwlCRGo6sg8cRsb2nVLzwBdtVCwIj1F59ht9C0JYOJI3bUHB8fdEHdEbMkRXCrM/Ks59i5YnjzDhpNhIQkBXQ9aBI+JqkNgNX+DpC2DUMxQCiwQBZUFYJBOphjF/CExaD85+o1kPnFwLmsJhDvLePYGUDRvB2gO+zOO32SYw0t2Nxgf3UXPlIvrqa8WCwUyG0Nh4RGZmCjlJWr0OUenpWrlnH7TR/n403LstMQgMNHR2qQRFRCB123ZRdmQWg7cHOElCR2kJSk99gc43r76vTWHve0BIKBLXrEX+sfcQV1ikrAg+mFP1CIXAVAQUQVDrQSEwSwRYfKn68kXUXr0kSonOLSQ2Dtn7D8kNPjQ2dpZv0/9zEoKB1haxIjTcuwNWdKReQMKKVYgrWqYFQgY7tBV80wVaSmquXkHludOa1cSJGAVHRyNj937kHDiM8KQkrwkCnzfSR0Gmuyj96gsMO2VK0IoQmpiE7INHkL1XWRF8M6vqKQqB7xFQBEGtBoXALBBgYF1PXR0qznyNpvt3QQGhqY0BdfErVmHZR38kufu81c9VYyYAffeUdmZFxcTlKxGWlDQnegEkJP2tLaj87izqrlzUFXEKiU9A/rETyNi5ByGRUTOymvA9TO1kIGTD7RuwjU0vb81YBGaC5B1/T9JEVSzCXK0u9dyliIAiCEtx1tWYfYYAI/kZqMcDrLu8zJ7k//3jKYBEy0HW3gMiVjSnza4twDLLTJmcSyEhqiC2l7xGxZnT6Hj13CUok+4EpnIWfvQDpGzYjMCQmVsvGOvQeP8uSj79vUuJaVpKovPykX/8PaRs2OR1Rsiczod6uEJggSOgCMICn0DV/flFgJoEdTeuofrieQy2tU7rDG+zUTl5KProh0hatcZnvv/5HbH2dpr+6+/clAyGwfZWF/dCQFAw4lasQtGHP0BcQeGsbvbUSegsf4M3X36Oztcvp5MRi0VSN/PePS6ujAAfu1H8AWvVB4XAfCGgCMJ8Ia/euygQGGxvR+V3ZyT+wFn+mEqCFCkq+uCHiMrM9N4H76cISbxDczOqLl9A3bXLuloFlItO37UHuQePIDw5ZVZj19wZrai6cBa1l75zqYYZFBklNRryjh4H4z28DYb0U5hVtxQC846AIgjzPgWqAwsVAWYrMHq//PRXUpTJWc1QgvR27UPuoSOSkrdYDi6Oc6CtFY0P70vcRX9Tg0hK8yBno+WE7oX8kx8gddMWBIWGzij+YOq6YMZE3a0bKPn0dy7y1YxDSN64GXnHTiImK2dW1oqFuhZVvxUCc4GAIghzgap65pJAQAtQrEHZN6fkoHSO4g9NTETu4ePI3LkbIdHRsz4k/QlUjp1Kju0lr9D67Am6KsukmBTdAaKguG4j8o+fRExOrk8ObMY8ND64j9e//w2Gu6dnitCtEL9ylYgmxS9fqeIQ/GmhqL4saAQUQVjQ06c6P58IMGOhs6JcLAitTx+7EISw5BRRL2Q1xWBWZ1xkQj60oDBIs6+hHu2vX6HtRTH6GuqkCBXFi9Lf2YGQKN8QIxaroihTyX/8XopUTSVjzBSJLSiSQMWktesVQZjPj0K9e1EhoAjCoppONZi3iQCFfDrLS1H+7ddoe/ZEnyCceB9pW7cjOGLxEQQH1iQKo/196CovQ0fpG6nayOqRMdk5UlHSF40EoeXZU5R89nv0NzZMw5qpo6xaWXDifaRs3KwIgi8AV89QCNBdaHOWfVOwKAQUAqYQEAtCZYVmQXjyyJUgJCWLXzzjnZ0IjoxcdBYEZ5CkfHNfr7gZgiOjtNRGH1lNhCDQgvDp711UG4UgZOei4Pj7SNm8RREEU6tX/Ugh4BkBRRA8Y6R+oRDQRYB6Az21NSg/fQrND+65aAEw/S7n8LvI3LUXoTExPjssl+J0UASq6cE9vP7DbzHc3TUNAlGNpBbCifeQvF5pISzF9aHGPDcIKIIwN7iqpy4FBJjF0NQkLob6W9ddVBSZxZC+ay9yDx1FRGKSIggzXRM2G4Z7e1F7/SpKv/zUpXCTFMJavhJ5x08iceVqWK0BM32T+juFgEJgCgKKIKjloBCYBQKM5K+6cA61Vy6KH35qow5C4jrqIHyM6KzsRZPmOAu4ZvSnTJ/sa2pE5fkzorvgnE7KMtpJ6+2ln3NV6ecZgaz+SCGgg4AiCGpZKARmgcBwbw/qb99E9YVzGGBFw6ns22pFdG4+ln38IySuXOWzgL1ZdHdB/unE6KjIOpee+gydZW9cqjoGRUQibfsu5L97fNaiTAsSINVphcAcIaAIwhwBqx67NBCYLPV87jQ637x21UKIT0D2gSPI2rNPq+Too6C9pYEuS1vYMNzTIyJJFadPaVUjp7EwC0Jj4yTWI+fgEQSFhSmMl8ziUAOdawQUQZhrhNXzFzUCDFTsrauVYk1ND+5iYmRk2ngd/vGCkx8irrAIAT5K+1vUoE4ZHFNJu6g1Iamkj12LQjGDIStHqjmmbdmmMhiWysJQ43wrCCiC8FZgVi9ZtAjYbBjq6kLdjauouXxRK1zkfMONi0fmnv1iRQhLSPSJsuCixXPKwKTmQ1urFMOqufwdRnqcrAcAAsPDkbxhM/LePSG6C6rc81JYGWqMbwsBRRDeFtLqPYsWgbHhYbS/eonKc6fRUfLKJYiOZZejsnORe/hdERBaCpoIs51skgPGdzQ/eoDqSxfQW1vt4r4hGQhLSkb2Qc2FsxjVKmeLo/p7hcBsEFAEYTboqb9VCNBNzptuawtqrl5C/c3rGO6aXiuAIAWEhSFx5Rpk7T+I+GXLERSqfOVGi0cjB71ofVGM2ssX0F1R7pJCKpiGhiJhxSrkHT2BhJWrlPVAfY0KAR8joAiCjwFVj1uaCEiw4quXks1AK8LE6PRYBAYnBkVGImHlamTu3o+4ggLtxmu1+gQwqhcO93TbS07bpns5rAFgpD/fbw3wTiNAZJQH+jXSY5v+XFisCAwJRXBUFBhr4YsATCkC1dkpdR1YIZPkYNwZS3vFSJaRzty9DxkUoopTZZ59spDUQxQCUxBQBEEtB4WADxDgrXeosxP1d29Lrv5Ac6NLQJ2QhIhIxBUtR+qWrYgrXIaw+ATtcJ1lIzlovH8PnW9KYLNpZZcdjX76xBWrkbhmjebegMX020g82ktLUH/tChiQObUx4DIyKxsp6zYiIi1tVjoPJCLjw8Pob26UmgtUTeyrrwVTHF2a4BiBpLUbkHv4KGJy80E3jmoKAYWAbxFQBMG3eKqnLWEEeJj21NWi5spFND+6rwXVudy6LaCAUnhKKhJ4aK9chcj0TITExiJwFrfw/tYWlH9zCo13b7sQEyo68padve8gwuLivLrpswZCw73bePXbX0mNhWkEIYRlllcj78gxxBUUzsjET2I12t8v1o/e+lq0PH2CjlcvMNTV6RLL4Xh3QFAwonLzJK0xdeNmBIaGejWmJbxE1dAVAl4hoAiCV3CpHysE3CPA8scdpSWovnwRHS9fYGxoQPcPWPEwKDwCoYlJiC9ajtjCIoQlJiIwNEyKHPEQDAgNQWCwuYJH/S3NIiTUcOuGDkGIQebe/SL5HBYX79VhSoJQd/sGXv7y33QJQsKqtVJmOb5omUeCQIIxOjgoVgH+7/GRIQx3daO3oR69NVXorq7EYFurlJB2IVZ2FFmYKSIlFRk79yJjx06w3oVFaUuoz1IhMCcIKIIwJ7Cqhy5VBMRn39uLluJnqL1xBd3lpWI6N2okCiQFvOUHx8QhLD4eITGxCImLlziFuHxzN/M5JQi3buDlr2ZPEJgO2vz0MQbb2yRWYqS7C/0tTRjp7sbY0KDgRIuCO6zCEpOQvn0XMnftAf+3tzEVS3VdqnErBGaCgCIIM0FN/Y1CwA0CEoXf0422F89RJ4F2ZWAQo9GtWB5lsYBkgb50/hMq2gkHxMdu5hBcCASB7peXv/8VequrMDE2Dtv4mFgT3JECB8zEJjQhEWnbtkt1TFoRzOCiFqpCQCEwcwQUQZg5duovFQKGCPDQG+nrQ/ub12i4fVMyG0b7et2ThMnT0CJWhJxD76Lg5PumDsKFQBC6q6tQ/It/QXdlhTkc7HiQCFDvIHXbDmTs3I2I5BRTmKjlqRBQCMwOAUUQZoef+muFgFuSQLN5T20N6u/cRPvL56KXYHMK9nN5gEURBAcm1DqIzMhC6qatSN++QywrynKgPjqFwNtBQBGEt4OzessSRoABeSwL3Vr8FC1PHqKntlr87oamdUUQJOAxKDoa8ctWIW3rNiSsWIngyCiPgZBLeJmpoSsEfI6AIgg+h1Q9UCHgigDJAK0Jfc1NaHn2BB0lrzHY1oLhjnYwU2BaW8IEgRkJgRGRiMzMFOXJ1C3bxKUgRa5UtoL6tBQCbxUBRRDeKtzqZUsdASEKIyMY7GhH2/Ni1Fy7hP66uuniRkuUIFDPIDo3XwSkkjdukuJL1sAgZTVY6h+NGv+8IaAIwrxBr168lBFgOiTLRJd8/glanz2ZHpewRAlCVFY2Vv/FX2upnQEBSt9gKX8gaux+gYAiCH4xDaoTSxEBpv29+ewTtDx7rAgCgJj8Qmz8L/+A8KRkRQ6W4gehxux3CCiC4HdTojq0VBBQBGH6TGsE4b8hPClJEYSl8hGocfo1Aoog+PX0qM4tZgR8SxBaUPb1F2i8e8ulhkFwdAwydu9DzoFDM5Jarr9zCy9/8wuX9MyAkFCtFsO7JxBfWOQxVsCTDoIiCIt5tauxLUQEFEFYiLOm+rwoEPAlQaByY9PD++gofQM4yRWzmmP88lVIWrVaq+boRTYAUzRZW6LuxjUX4mENCkJUZhaS1m1AZEqqIgiLYlWqQSgEvkdAEQS1GhQC84SALwkCsyPGhoc16WKn8TB1kGmCLCtNfQGvGsswj46KVLTLc6kQHRgoVSjNlFtWFgSvkFc/VgjMOwKKIMz7FKgOLFUEfEkQHBgyO0KvWfgvvbAcOD/D6LnaY+XpHpsiCB4hUj9QCPgVAoog+NV0qM4sJQTmgiD4M36KIPjz7Ki+KQRcEVAEQa0KhcA8IaAIwnTgVZDiPC1E9VqFgAECiiCopaEQmCcEFEFQBGGelp56rULAFAKKIJiCSf1IIeB7BBRBUATB96tKPVEh4DsEFEHwHZbqSQoBrxBwRxCoXZC1Zz9yD78La4CXmQde9eLt/ZjjffX7X6OnphrQCaZULoa3NxfqTQoBMwgogmAGJfUbhcAcIGBIEAAEhoUhtqAI8StWwWoyS2AOuujTRw51daLpwT3w/yqC4FNo1cMUAnOCgCIIcwKreqhCwDMC7ggC9QqswSFghUNzSYSe3zffv5gYH8foQL+L4JKjX8qCMN8zpN6vEJiOgCIIakUoBOYJAXcEYZ66NK+vVQRhXuFXL1cIuCCgCIJaFAqBeUJAEYTpwCuCME8LUb1WIWCAgCIIamkoBOYJAUUQFEGYp6WnXqsQMIWAIgimYFI/Ugj4HgFFEBRB8P2qUk9UCPgOAUUQfIelepJCwCsEFEFQBMGrBaN+rBB4ywgogvCWAVevUwg4EPCUxRAQEoqA0FCWQ1oUoNnGxzDa36eyGBbFbKpBLAUEFEFYCrOsxuiXCLjXQQhHbOEyxBUth8W6OAjCUGcnmh/dx7DSQfDL9ag6pRBwRkARBLUmFALzhIAnJcXM3fuQc+gIrAEB89RD3762p64Or//wG/TWKiVF3yKrnqYQmBsEFEGYG1zVUxUCHhHwXIvhKApOvL9oCEJ3TTWKf/4v6K6qUEqKHleH+oFCYP4RUARh/udA9WCJIuCZILyLgpOLiCBUV6H4F/+C7kpFEJboklfDXmAIKIKwwCZMdXfxIKAIwvS5VEJJi2dtq5EsDgQUQVgc86hGsQARUARBEYQFuGxVl5cQAoogLKHJVkP1LwTcE4QYZO0/jIJjJ2EJDPSvjs+wNyzz/PyX/4ae6koVgzBDDNWfKQTeJgKKILxNtNW7FAJTEHCb5hgejsQ165C6eRtY2XExtIG2VtRevoiB1mZFEBbDhKoxLHoEFEFY9FOsBuivCLhVUrRYYA0MQmBIsL923+t+TUxMYHxoCLaJCd2/VTEIXkOq/kAhMKcIKIIwp/CqhysEjBFQUsvTsVEEQX0tCgH/QkARBP+aD9WbJYSAIgiKICyh5a6GugARUARhAU6a6vLiQEARBEUQFsdKVqNYrAgogrBYZ1aNy+8REILw+SdoffoYE+Pjft/fue5gbH4hNvzdPyA8KQkWy+KoPzHXmKnnKwTmEgFFEOYSXfVshYAbBPqaGlFx9gw6XhVjYkwRhOjsXKz+6V8iNC5OEQT15SgE/AABRRD8YBJUF5YmAiN9feiqqJC0vwmbfmT/UkImLDoWSevWITAkFFAWhKU09WqsfoqAIgh+OjGqW4sfAZvNBv4D/qOaIGCl5oMiB2o1KAT8AgFFEPxiGlQnFAIKAYWAQkAh4F8IKILgX/OheqMQUAgoBBQCCgG/QEARBL+YBtUJhYBCQCGgEFAI+BcCiiD413yo3igEFAIKAYWAQsAvEFAEwS+mQXVCIaAQUAgoBBQC/oWAIgj+NR+qNwoBhYBCQCGgEPALBBRB8ItpUJ1QCCgEFAIKAYWAfyGgCIJ/zYfqjUJAIaAQUAgoBPwCAUUQ/GIaVCcUAgoBhYBCQCHgXwgoguBf86F6oxBQCCgEFAIKAb9AQBEEv5gG1QmFgEJAIaAQUAj4FwKKIPjXfKjeKAQUAgoBhYBCwC8QUATBL6ZBdUIhoBBQCCgEFAL+hYAiCP41H6o3CgGFgEJAIaAQ8AsEFEHwi2lQnVAIKAQUAgoBhYB/IaAIgn/Nh+qNQkAhoBBQCCgE/AIBRRD8YhpUJxQCc4+AzWaDbXwcY0NDGB8ewsTYGGC1IiAwCIGhoQgIDYXFYpn7jqg3LFwEbDaMjY5itK8X4yOjAGyuY7FYEBAUhKCISAQEB6s1tXBnG5MEgcFUKV0AACAASURBVJvF+MgIuInoNW4bloAAbcKt1gU8ZNV1hcDSQ4Df9djgIPqaGtBVXo6+hjqM9PTAGhSEkNg4xOYXIH7ZcoREx6jve+ktD9MjJsHsbWpA/e2b6G+oh218wuVvrYGBiEhLR+qWrYjOzoHVGmD6+eqH/oWARhBsNvQ1N6GrqhKjff26PeSkhyUmICY7RzYR1RQCCoGFgYCQg4F+tL1+hfpbN9BbU4XR/n5MjI0CctsLRmhCIlI2bkHGjp0IT05Rt76FMbVvvZe8SHZWlKHsqy/RVfoaE+PjrgQhKAixBUXIP3YSCStXwRoQ+Nb7qV7oGwSEINgmJtD85BGqvjuL/qZG3ScHhoYhYfUaZO87iOisbN+8XT1FIaAQmHMExoeH0VH2BlXfnUNHySuMDw7CZpt687PAEmBFaHwiMnbulo09KCxMyINqCoGpCAhBKCvFmy8/RWfJa9gmdAhCYBBii5ah4MT7SFy9RhGEBbyEJglC/b07KD/1Ofoa6w0JQvL6Tcg7dgKxefkLeMiq6wqBpYXAUEc7qi5+h7qb1zDc1QlaDPUaXYcxBUVY+ZOfIjY/H1blSlxaC8XEaE0ThMJlKDipCIIJSP36J1MIwm2Un/pCfJN6LTAsHIog+PVcqs4pBHQR6GtswJsvPkXL00cYHxpyi1JYUhIK3vsYWXv2wRqgfMdqSU1HQBGEpbUiFEFYWvOtRuuHCNCPy42Xrj6jm31AYKAECc+k9dbXoeQ/fo/W588wMTri9hGhsfHIPf4e8g4fBeOOPDaGME1MSP8njPpvj2qfaf899kH94K0hsKQJgs2GifExjDP7Rzd5wyLfDNf5YskGUgThrX1a6kUKAX0Ehrq70Fn6BqMD/a7mf6sVITGxWnBwTOyMNp6+pkaUnvoczY8fSPyBuxaWlIzCD3+AzJ27TfmOGdU+1NOD3vpa0JXh4r6wWBEcGYnY/EKExMTMqP9q3fgPAkuZIDCWp7epEb11NbCRJExtFitoZY/KyEBESuqisb4pguA/357qyRJFoP3VSxT/4l8x1NXlggBvJEw/zD/5AeIKCmd0wA739KDu1nVUXziHwbZW4xgEvmv5Kqz8yZ8hOjPLVLojN832kleounAenaUlsE1Mv1pZAq2Iyc3H8h/8CLF5BaaeuUSXwYIY9lIlCMwEGmxrQ9XF86i/dR3jw9MtcRarBeFJycg+cAiZO/cgICRkQcynp04qguAJIfXfFQJziICWQfQYT/7X/wMets7NGhiEuBUrseyjHyKuoGhGByxv+T11dag48zVanz3RtVRYAgMRlZWNvCPHkbZtuwjdmGmjgwPS/8qzp9FbXemio0Jza0x+IVb++M80gqMCH83A6re/WbIEYWJCNETefPk5Wh7dx8QoRaK+b1zXtL7lHjmGrL0HEKgIgt+uYdUxhcCCQWB0eBgNd27h5a9/jokR1/gAXxAEgjE+Ooru6irUXr2ErvI3GO3tw/j4OKwWC6whoQhPSZXAxNTNW73a3Eb7+1B/9w6qzn+rpUg7ZUgogrBglqKpji5lgtBbV4uXf/g1Ol69FEVSRRCmIKCyGEx9P+pHCgGvEBjp7UXNtcso/eJT3QBCXxEEdoqbGt0NXZXl4kcd6RtAQEgQQhOSJHU5Kj3DtOXAMciR3h7UXr+Kqu/OYKjTNYVSEQSvloPf/3gpEwQS7Be/+jm6K8tdAoqVBUGlOfr9x6s6uPAQGOrqROWFc6g6841WG8Gp+ZIgCEmwZx1M3oBEC8kiQVUzMf8Pd3ej+vIFEWEa7etx6b8iCAtvTbrr8ZIlCOPj6Cwvw9N/+X8x0NriailTLgalg7C4PnU1Gn9AoL+lGWWnv0b99Suwjc89QfDpmBm41dmByvNnUH3xvK6LRBEEnyI+7w9bqgSBMQftr1/iyT/9T9Bq5tyUBWEhWBB4O9KuSfKP/f+TG5J2UbLIP/ORoypFsCb7Ze8j++Lol3RP699iaY4xOxcAc4zZL8YrpUi4aqQkib3xf7ydNdNTX4uSTz9B65OHujoIvrYg+HJtMcCSBIfBj3XXr7r4ZWVpv80gxcm51L4v+f5lKt/OXPoSW9PPcoxzwrHb6azdKXuM6eca/HBeCcI8fqujAwNoevwQr37zC6ljMt8EweU80Ra6/TzRrIK+2F8XfBaDAEWhlvFxCcRiGVtWrWNlSopacKOwWANEwIKVKANDQhEQFoaAoED59zMxq5r6yOyLmVrlE2Pj0idGfLNAzsTomJZHG2AVn6+F5XZDghEQEiZldylxK/2aR7LAzV901vVVeaVMMPvoTLYcJmwy7tHBQYwNDmhzIeIiNjkwOBeBYWEICgvXqoPy373F8Wp91OaF/WT549GhQbkBa2PmmgmENYhrJmSyFLKIFTnmxtQi+P5HjlLLzkF89Gu+/sNvpFYC17FzI1Zxy1ai8IOP7GmOBpVUyS3drWeKvPD5BmJG8l43z9DrP78vZkdUnv8Wzffv6hIcIQh5BVj+Rz9BXL77NEcRmPEyy2Gqy4TrbGxoEGNDw5gYG5HvTOYyMACWgEAE8vsPDUNgWChIvGY6l15OvfHPHe4eN3MifXQWyLLvLbLnccyyt/TLWmZ1RabccbwswsX9hN+a7DMOAZ9Z7CtvnSCIONG4VqbcPr/M9uFe77C4sRiUVBoO0b7VwOCQ6YJFXo6X75oqWsY1NsJg3Du3UHbqM10tEbEgJCYh59BRZO7e5z7Q12r1fr+bdp6MyZ4l59yotrfaxsYBqybUxLUtOISGyf4qiqg6e7WZdbxgCYJsDGNjcugOd3VhsKMd9OcyUIp68yOsVjc8JBOtHcChCIqMREhMNMLik6QyZVhCEkKio+RD8pnKm/2jHxsexnC3vV+dnRhob8NQRwfGh3loDgmR0Q7KcJnM4KhohMbFIzwpCWEJifIPF/zbPDgn788TE5KTz6j08RGd1LuAAOkv834Dw8M1kmBXGSPTHmxvQ19TEwZaWjDU2Y6Rvj5MDA9LgSCrfdMKiY2VMXLMYfEJ2rNIjriYvfygzSx0zbBkk02UgkSyXjo7ZZzDHR0Y6uoQQjPB8U7YYBXCForgyCg4+hrO/iYkivCPbLheHGZcjwwM5Ec9tfU3NqLm8ndyE9erkcB1GZWZjfQduxCZmi6HuF4jkYlISUFofIKuhYwbSn9zE4Z7unVv+nymPCM5BaEJ059B3Hhr6m9pAoMqHf3kRtrf3Iymh/fQVV6q339rAMLT0pG1Z6+9//oD4Lrgu8MSE81Z+DiXY2Pynct339E+Oacjvd0YHRjE+NCgHJjWYM5lsH0u42SthcbGyfoLiY6etxL2PNw578OdHbpVEZl6ym8jMjVtcq1xP+PfDff2YKC5GQNtreIT595CMs4LCNcl5zIoIsK+dpPkOTLe2BjZC71Zu1PX29siCJo6p3bJ4D7CvXSgnd9sB0Z7e7XLFlVBbZB9kgch9/fQ2FhQDVS+2fgEERdjyqHZCxfHN9DSLJoHE1MKUXHPaH1ejKb7d3Rdadyz+K7kjZuQtHqdlFHXa+xHaEwcwpO1/c7MXkcsHOcJx8/9daiDe1cHuN+SFHN/JVGykiSFhYkoWVg8z5EEhMbHCyZB4eFe768LkiBwEjlh/Lh6qqvQVVGOntpq2egJpOMWOLnhyoHD65FmxuehHJmegZjCIsTmMno7U4CU3NXZHE4sqzs8LBPYU1uDzvJSdFeUY6ClSRifsFJxM8hxpa2fKW4PbmTc4HnjSli+EtE5uYhITEJAaKi5TdPsSenhd8S39UWxBJ5x8/reVaP9IT/IuIJlyNy9V+q9c0xyALU0o6u8DO2vXkik/EhPj/5c2OfDGhyEkOhYeUbCilUiqMNDjpUEfUbYNGYgh8lwXx/6mxrQXVkhc9NXXycHplgOpriAJudFWzBS6TA4IlJ0AljGNiY3TyL+Q2LjQKuCmTXTXVONsq8+F9I11eUyPjQsJMo5bWpyirheSSCjYzXpYwOCwHWTc+AQUjZsEkuCc+NBUn3pAjpevxS9Bec55e/D4hKRuf8gUjdumqYExxsc13Pt1cvoLKMYkt3SYZ93bth6RNKBIw+r4JgY2cSNWkhMnOSPp23d5lGFjljxgOhvakJn2Rv5/km+SBLkNqU7l9q3xk00KCIS4SkpiMnLR3zRcsTk5MnFgTevt9m49qqvXEarvUbG1DmhsZjffdL6jSg4dlKw4zyM9PXKXPAb6yh5rZF4EqEpczK5Hrl2rQFyMIQlJiM2vwBxhctkXwmNi9OIkZf73ZwTBJtNrAPcO3rqamVfp8roQHOjEHopL+2oROrwCTrGYKG1xSqWSWoSxOTkIrawCNFZOUIW+B15IkYknPU3b6D+zg25xDka3yvEpL/PrdAYLxRB4RFymzci8omr1yJz117Z69z2x44FL7ydFRWy1okH9y1efsUi6MBgKhbiRrfKPh0WHy/7VlzRCsQWFCI8MckUDo6+LyyCQMBGRuQ2zkXTWvwUXRVlGOEmTxPLtBK27j91TgzZVnhSCuKWrUDy2nWyYYRERs3ocOKmNDYwgO7qSimd3f7yBQZamzXFLS/6JQcSbw4JiUhYvRYp6zfKgRQSFe1xcftqc+Mtu/HBPbz57BMMtrW4eBnIjil+U3D8fSStWSubFjfp5seP0P76hXYjsrsUPPZJNjErgqKihRQlrV2HuMLlYNEgOXxn2WRehoaEpLW/eiX1CHqqK4R5y6FsUNlQl/3bLT6RaRlIXLVa/iHR5IbgidB0lJXixS9/hp6aatdHm+mDh42ct2KHRLIeQeBB8ubLz9Dy5JHcOPQaN9WC9z9G1q490wkCS/xWlKH8m6/Q9vzpdFeCmb5P7jbG8TUkOAUnP0TWvgNu553rihYDbpZcb50lryRoTDs4jPxhTqO1xyGJxSQ9AykbtyBxzRpEZWR5pQExy6WJgY52lH31JRrv3pLbv3Pjd5a4Zj3W/2//WczFg12daHvxHE0P7qKr9A3GeIC5cxlNfSCtCrTSpKaCB1TCqjWIzcmTW7enQ3PqY+aSIJDk8LvkHtr++hXaXxSD2gO0JExersyCzv09MFD29/jlK5GwcrW46GhZcFeEjBay8nNnUH3hjGthMy/Wl1E3eWinbtmO/GMnRJZZ71uVv5XL5hB4sWh7/gzNDx/IHuauZovuO0mKAwOllHvCCu6v64UohFK23URtl4VDEGjmHBpET22tVKVrffpYTKaiaGV24nQQdDCtqNw8pG3dLgdeRFKyKfAcj3OYYHkrbbh9Qz5izRSrX3zH1BrnoRkegZj8fKS/sxPJa9aJCcvMbdXU8938SAjC/bsosRMEl59aLIhIy0D+sZOy6Npev0Tj3dvoqSwXE7pzUKKp/nAhBwWJ+Tdl8zakbX0HkWnpXuflT32XzEtfHzory9H86IF8aJPkxVSn9H/ED4suFloTKCxEYsMbmbsPjjEGz//9Z+itrZnVejXqNg/3ItZQ2LVHd9OhK+PNl5+i+clDw4qOkwRhNwnC9+RMDoXyMpR98yXai5/ObH494B1CgvDeB8jedxABBjd5Ejq6hqjc2HD3FnprquTCMOPv304UgiKjkLxhk/iOqQfhztIxi2Xj8qc0mZed+lwjCDqkTcpv5xdi7V/+jbjmWp48RN2tG+irr3WtBWCyY3wmTdBcu9xXeHDSLG/msOAr5oogSE2P7i60vXyOhru30fmmRNx9RgXMTA5X9ksSQVop07bvQvL6DWJNMCIJJJvlZw0IgumXGv+QBCFlyzsoOH4SURmZ+gTBfqnpKC1B7fUrYvXjPjYrLBw45OYhY8duJK/bYGreFwZBEHIwhO6qCjTcvomWZ0/c1rWfyTzyA2GRjbTtO5G+bYf4Q81+NPST8UbDSO62F8VuzVDe9o0LipaNrAOHkbJuo5gL57p5JAiAxA6kvrMDIdExaH54Hz01VS7yozPpp/jo4hOQvGmraJpHZWXNyJLgIAftb16j/uY1dLx+pV8MaSadlL+xiAkvOicH6bLxbEKYG5KgCIJ7oD0RBAkU6+0V6xxTKntrq43dMt7OqcUiboek9RuQe+hdxObmmf72vX3V1N97Igg83EjEc48ew2hfPxru3EB/Y4NPxm0NDkFUZpaQBJJculjNWBLmgiDw4KNvnVbL+hvX0NdY75O9ZCrWvHxEZeUgY+dupGzcLPuXHknwB4LA/ZeXmooz34gVZVYk2GmBEofo3DxkHziC5LXrJZ7K3bz7P0Gws6muqkrU374hlgMGrJi+NUgAHVHybH4kIaDkLDf8jO27JGDQ00fDD4bldGuuXkLT/bvi7nDXtMhpBuLZU7EkW8C9pYHmRbobcg+/K4V7TJXhncXOZYYg8BYSnpImmxX9+s7a5LN4vWAeEheHlE3bRP6XTNurMdujjttfv0bdLZKDl+L+Mb9mrKatPxpJyEXGzr1IXr9RY+U6wYuKIMyOIHCTpIWu4ttvhITraUY43iB+dYna1jI+xLfv6TuzWGSzTN+5F4XvfYiQqKg5t9aZIQgkLrz9MgiRQaKmXQomPkC6MiNT0pC1/6AQheDoaI8xCT4nCPxW+/rQ+OAuqi+c1/YSHcEw3eE43G4mLchyOGblIHOfFmdDK6DztzrvBMFmk8DpstNfov7mdW3fctMmM3HsgeKOrB53ex1d64mr1iDv3ZPidnFnMfN7gsCAFfpt625cFTOxW3Jg92cz2MgayHQ6LbVHUtpGx7Sa9fRnOeloT8Wfv6ePmYsoY7t2Q3bXGEzT+PCeBIAxUMroA5Y0K0aXRkeDJk1LUCBsowy2HLBH5fbrR8fKZdUiAXHpO3Yj9+BhMcPPZTNDELgBy6Ftzwxw7s/kwuVGrbEhIUKSQmTigxZLQkIi0rbtQNae/eI7NRtQRTdHR+kbkTBuf/kcY3pllL8/TTQVQa4ZplsGBcIaEDSZJje5ZtyQOGY7MBgq+8BhcVExSMq5KYIwc4IgN8yODtRcv4yq785iTCcPXT4TrsmgYIne5+bPeeGaGR8blY12tE+Lfncp1WvvGn8bkZmF5T/8sdyuvCKlM/ggPRIE+5i4J+nG9Nj3u6npxqymKd8Z3ZsmvjPukVKk690T4mYJ8hBZ72uCQOLHeIPy06ckE8btRcPuT+dBLxH74opiUOOIpPlJCrmHWBQehnHLV6HAXh3V+XCcb4LA845ulle/+5VubZPJbSswEEGhYQiKjpbsHDnnmAo6NCgZR3RJSOCw3hogGY6KRvbBI8jaux9hcfGGF2G/Jghc6MwIqLt9U5Tm9CQuJwELCJCNgcF9tAKEJyRJAA4Xk6RD9fVK6kpfYwMGW5q1yF+DD4h/E1uwDHnHTkrwouFGYbOht6FelOQa793RDiKdxltmZFom4pavkNswSQLZO/PIx/oHJH2ni9HYLKLT16f7DK1PRcg//r740cweljPYt+QjdRuDYPRQiRLX8pFJgiTFiBkJVqssXt4UaGFhJDA3BndETTZ8un3SM5Bz8Agyd+6WQC1PTSw6DfXTLToG88w54K2RgUzhqWkS8RsYHiEuDUb6SypZS4usmaH2VremPo6XwW45hw4jJjvXxUTNrI5Xf/gt+hrqphmz2N9pUeg6A9Q0PEIkn98ojYHrnus1fds7cxKD0FVdiarzZ9Hx+sX3JZ3tqa3MAnF369Ny1Kk9YNx/EmBWwqMJ2Dk4VQ6l0jco/epzsQbpWdy4xoJjYiVSPza/UHLSHVlJQhD6B8A4jPaSlxIFbrR5co3RdbbiRz+RwOC5bGYIgt77NSIUhIDQMNnouZ9IWh3J0NCQuGL4jZEoMxXQk4WSayt+BbU2fiAxGO6IkU8JApU4OzpQ9s0piSkZY4aAQdO+1ShEpKUjOitbxs10TdqFOVbGptD9wkA+HpDu9hbuS9mHj8rFg+muU/dS7lFVly+g7uqlKdVVNTE1rnO9iquTZxDnhSm1QcGG1if+dxKx3INHJMbK2YLBWimlpz5D3Y1rsi/onicMrs3IRMLyFYhMzxTLD/ddkiPOObM9eJ7Q4jbay0wyVws18WSwYtFHP0J8UZHWZ53m1wSB0eeMOuetgRuEkVlRgtuSUyVVjjc5As/cT6bLwWIVgMis6Ofqra9H+/NitL14JiluRgyLpr20d3Yg7+hxyUPWa/xYeDMs/+YU2l8811L6nBo/tqjsXGTu2icR+i7BbI7gy8pK1N64htanD11y5eWRFotsetxEs/cdMHVYznRzmwlB0IKfwhGenILovHxEZ2bLHEiur50g8MPlTVBSUyvLMNTe5vaDY/+Z6pW4dj0Kjr+H2Dz3Qjv8PeeU5KbmykU5CIw2Cm6KkRlZSFyzVjbFMJLK2DjJbGFzpNINtLZKf7leuAaN0pw4fqmISMvTjl0SJTw1oJSR97wZiEzrFG8XU0MZ4MnbrdFhQEwZzR6emGi48VCPguZCbhh65HE2QYpyg+/ukkyVwbbWyW+GGxJJO6vb9Te7VnKUZSsxJYmSHy4aBwZ5mpxnHuzRmVkumya/3caH91Hyh99qFkSdFhgRgeR1GyXQkOltFEOaij/1ELg2WoufSXGp3ppK/duqxYLo7Fys+ulfIX6Oy1PPhCBwY2eOO/3pzG5irBQPSy3v3iLEh2uMlyGmxHHtct8zspo4oOQzsg4cQv67JxEcEWG4znxJEHhJaHv5Am8++wN6GXhpYNllvASzhbQMp2WSbSKXP3sUPsc82NmJ3tpatL96LpLI3FsMn8fDcdkKEe9ivMnUWAT2iWSYuE3FTOLMSt+gs+SlPhnmrTwiCnHLl8vBOzXId+pylUtPaqqkdMvNf2p2EktKNzfh6T//T3RXVRoQYf59OnKPvIvENetcAw1tPOuG5e/pkm8rfmp4zpEoFX70Q6Rv2y5p3HoB8H5LELgpcfOpunAedTevGpoV+WFwU2QGQvKGjSJAIbXsmRM7BXwtN5oiI6OSOlNLl8WDe7q62rKx0dWQmSV+GgIoz3RqzKpgwGTlmW9E70CvBUVEIX3HTuQdOa7FNOilltj1E1pfPkfl2dPoqarQf1ZkFNK375QbNfNZ56p5SxA4Jt5g41esQsKq1bLB8jbuwqQdaaqtLfKxNT99hK7SEn1CZB+cw9WQfeAQcvYfFiuRUePmRWVCYtjy7LFhtD7JAT/QjF17Jb3NkfIzTZrULttN0jfaPyCHY/2t65IJISRBp9FyEr9ytVh5EoqWTZtrh7CXs9Wq400Jin/xrxhkARidOBlNSXEFCt//WDYeI8sR/707JcLZEAQhTHYf/tTbCDdTunJYybHjFS0LOjeVSSXFH8vt3hEX4AKf3frkEr9hs4klh+S59PNPdA91jZylIe/oMYnQNhKgkSyIrk7U37qJ2muXtHghHesSg2Tz3/sImdt3zqmbwVuCIBehlFS5gTJVkVoccphLzIs9hdQu1CY6EY2NomfS+uwJ+hvqjbUqHJLYuflY8ZM/14iRQQqcLwkCb8sVZ0+j7tplsfDqCoUFBsp+wuwWxmExxkdcglNk6R1qurxQ9jY2SFZI04N7QoyM3Cx0X6748Z8hZf0Gl8uWKDdOU5FlXEC3WCWrvzs7TR/BsY65Bqk1kXPoiOjDcI/RZ/w8hzV1TOdvWbtwluLZv/5/9v3A9Qm0yCZv2IzlP/xjycYwOk94NnFvqb70nXa5Hht1eRgtUBm79yLnwGFQBE4vdspvCQI3H+oclH/7tZhL9Bo3T5qgGVCYunmb3FDM+A35bOaXVp37Fk2P7huya5qNCWD+0RMS5evcKKrR9PA+qs5/q6Wv6TSaTnmrzD10VJi/UeMi54JufvwQ7SWv9Q+g4GC5NVAbYS7jELwhCHKAJyZLWqKkJqamiYvBUAfcLhlKa4IjjYfWl6miJM6D5/PEinDiA/sho59PT9Nqw73bEuzESGi9zUE0HHLzkb3/kOQEB0dFeQxEdWhcaB/ceXuQnKu1iAyct/3cI8eRsX2nuC88paW2vX6F4p/9k6i36ROEIMStWIllH/0QcQVFHvtqtL5mSxD0niv+45LXqDz7jcR6GBKE/EKs/PGfaVLRXqhPCjGxfxfVVy6i8puvNPl0p6apTWYJMeMa9GQiZ/0LiuEMd3fqnh/chJPWrUfq+k2m9pOZEnVvCILk9KelI2PnHqRu2iLWJMY1GRFGMYmPjYmLlmnXDXduShYYzeRGjTfazAOHUfTeB2K+11u7viQI/a0tePHrX4j1VVQR9fbPuDjkHj6OrN17tSBKd+tHhIVGhMzT7cvzw2i8tEDkHj2B7L0HRBvBrcvWHjhYdekCqs6dNiYIScli4aXgl7i3vGxy5r0oxotf/hxDHW2uf23PtmEsWtEHH7sNpOW3SALGlOCON68lPsO5cU0xQy5t01ax9uph4LcEgZu9Vkb2jKhqGR2+dAPQl0QTlDsBDOe/p+IhD3dRt2ts0CcgQcGIX75CAloY9alHEGj6rD73rRagqNPI0pI3bhZXBRm/qJcZLHJR++vpFnOuXiPz5ObFG6/ckuaomSYI9mAXjo8Mn9HWZpUFuTPzlsMDpurieXTwgDEwMcoNMZU3xBOS1aB7ANhsYp6rOPutllduEA8SSr10iWnYI4TN7IGlfXDdqL9DAnLWmOGHRyBl0xbkv3tCgr88xYooguBhEcvm3Cm3t/KvvzQ07/LWn7n3gMSq0K9MIqiLPa11I8MYaG3D+KirjDh7Y7EEiAS7+Ke9JDTefJJmCYLDipa5e7+MT1ISTYjcsC+8DdMt0/T4EWquXEC/G7cbn0ndhQ1/+/eGN0pfEQR+6z31dXj9yW9l76QLyLmxpgSJ38qf/NT8/k6LU3e3BCjz9kwVQj0WyH05bdt22dslpd0D8WBmwVshCC/tBKFdhyCIim2oiFyx31GZmW5lsx1zT6IgQatOjd8HA6q5ziVYU0eMzS8JAjdjbvblp79Gw61rxlXi8gpErCdp3QbvGRsDDBsbRMms4fZ1/QOZB1NyCvJPfoCsaMWRYgAAIABJREFU3ftcfaPDQ+LTrPj2K5EY1j/ULQhNSBL3R+KqtYhITRNZV5qgeNA5L0yHK0R/o9Fuzr6o0uVuIzNLEERyuWiFmNUSV642rS0++W6ShIEBND66j4qvvxThK6PmsOZQvTGUlhinxayJ+ZSi7OtTaH/JNDjXGz5vXPy4aJ5joJMZa9PU/kym2p35Rsy2RrUT6Esv+uiPRGnR0wGjCIJngjAy0C8CQW/+43eGMSviakzLQMKatUhcsRqRGZrC5WSxmqnrZUpVQMPv7C1UfTVLEHiYcY9b9vEfITIl1TQ5cIzNEStSdek7NN6+6TYVm6b3lX/yF5rcto6Sqc8Igv2G217ySuJv9ALGeSEiiaelz5sbOQP1eHGrPPct+kg+9IqgBQcjac162Qt4ufQHguAQJHv6s/8lgfS6+wuDcaNikLB6jayJmKwcwYi1RhwFyKau6UnZcd00f8/niV8SBJpD2kpei7Rrx8tiw5s5F07u4WOIycnxaMrVewirg1VdOIvyU58b7lIEP/vQuxIUEkyN7SmNfqquigqJwm0rfmIYyS3Ke5FRkrZH1wDz5hlow/8dHBkhtx2mZwlh8FIb3Zsbi9nfmiUIvLXRVM9UGbpSZtR3ufk3o+LsN6i7ctEws4RBbBQjIlmLyc5xeRdrc7AcKzeFXsoZ6/iWtcDTnSJzKumrXmL9fVzMOdTfuKofHc5UudQ0FLz/EdI2b/No6VEEwfOqZOR4c/ETlPzH7zFAEmmUlRIQKC4jatwzfig6O082f96QaHFjHJGWIjd3BcE8j+b7X5ghCDwkaT0reO9DLRbKTT0Ld++mxZTBe4yQ72EAnIG1jt9I9sGjKHz/Q91D2VcEgX11FCFyl2Uhwc+OYkvyR1oap9ux2t3TrDLK2DC9sXKvZcwUXV+0UvgDQeBh3t/Sgue/+Fd0lLx0X5+FOjTMvkpJFcstrZURSSkSoyUZLlznOhdQb9anXEZtbBMTqL93G+WnvtDSsHQaI9S5QecdOyFR33PZuCHQl8z4AwbX6PcnDDEFRcICuQHMtLW+eIaGW9cNJ4NpbxROyj9+UkxRzo1FcGqvXUHdzWsSOWuYe2y/kZAIBEdHCQuUinJJybKhMTKV+ahBkbz1hEyWZ53puGbzd2YIAm/jJDoFJ94Xk7o37h3nvvFmXn/vDl79+ueGAYtc9HFFy8XPzGhmZzJCM3TttcuouXJJmwedRpKWuHaDbAze3EimPkqquhU/Reuzx4ZrRgonHXpXgpX0rB1Tn6cIgueVyg2+u7ZGAtqaH95z60fXimsFSOAZfdYsBsbMIVoCGT0ekZwqPmchDCz9brLYludeev8LMwSB657BeWv+/C/F7K8FJHrfePgwI4cEgcqnerUf+FSm4SWt3YD1/+nvdPU8fEkQZBT2YGCXEbFqJVOAGZswPqGVfLaXaJd4JTcaD/wbSoM33LqhKW4apPnRfbzyx38u1kR/IAjEgGmWlRfPofq7c1pmk5txOtJdua8F26tYSjXgxGQhleEJCXKplarALPvMtePlpcgvCQLTmmquXkbFma8x3Nmp+zUIswyPkEAwb03FUx/IQEMjPxV/J1Gjm7Yi/9h7iMnOdukLmTlN2zWXL0iEuyflK3mAnSwwZYnBQEzRojmUh0l4aob4lshqKQfKg2wy6M/7fWFGf2GGIIi645p1QpwkeM7LhTetYzabWIxe/ubfRV9fr0kgWkYW8o6/J2mEzu8jUWM6LIkaq67pPoO51FHRIlc90/6ygho/3Kllj53fxQMoY89+5Ow/pG3qbrBRBMHEEhVlzH60FDPl+Qx6q6t0g66mPcnhIrDX+KCv1bFfhMTHizuCwapMiQ4KD5sXsmCGIPBGz6C0FX/8Ey1wcBaNvmi6GWipI6E2MmFTA2bL//mPuumOPicIU8cjuhrj4nZkvA9v0/0NdRJTwP6Os8Qzy0DrBKpOg4XfqD2lWmpc6Byy3Hv9kSBolVNrUfrlp5KySV0Lj81evZE6I3RH8TIvpb6jYzSLNS0M2TmSAcJ9210cnPO7/JIgcIHQ9E8tarcHLoGxH7geQTT4wfc+Gv0fSMnVdRuRf+J9xOlYTrRCTX1oe/VC8qu7yko1dm62ypozYaA6VkQkQuLjEEVxJZakZhWyaPqZ7NkBMx2syb8zQxCCoqJE5ZBRu1KvfjYEAZCskpLPP0Hr44f6vWQ8SFKKxJww5dH5fYxfkJiVOzfdZkQ4yJlJKHR/5mnNBEfHyKaec+goIpKT3WKjCIK5mRAthq5OcSOJXn9djSZcZbbpEAaWoKZ+Cgl5bD7LAlOAJ2pW1jCz3eHvPBIEi0WsHzlHjkmatF6qtTfvk3ifB/ckZmrAqez41OdQY2Hrf/8fukGac0UQpJJjX5/EhXEvZeYa55uqmZxnTVjNNYPF4AOVf+3uO/VXgsB+89LJzIPKs9+CAmtulWBdTvTvz0SHQBnXNLVISIpjCwsRm5svWQtcT55ipPyWIFSc+xZVZ7+RUr3z2RwEQYR68gv01+PEBBhIxfQa5t92vnklalaiumVC7nTaQ4X00ExqFZGgkJg4SUVh7jNr14sK4wzNjGZxNEMQeAhm7N6H3ENHRANhtgSBQamlp76QoFQjzBjnQLVAkgTn91HtsPTU52i6f8e8lrtZQLz8HU3b6Tv2SPCmREgrC8KM0xynQs8DYqinB+2vXqLhzi10V5ZpZbvNavdPfdgUl59kBsXFIX75KtEZIeE10lLwcim4/bkZgkBxtHyWwd6z17DKpdk+cT9qfVmMN59/ahi8x2cxbmPzf/tHhKekaGbpKc3nBMFuNRhob5O9k3L6TM2UwMWpsuze7qMeQPFngiAZXsPD6KurRf2dW2h9+kgyUWZUtMlxntC6EBIqF00q8jJonsHUosKpE4zqgE8RBA8LSVwMG7cg/zhdDDmGvyZb5QdI1ksVK/qpqS1OUzTNRGIW83aRO+rWh4YhMkMTg5LKa8xZnUOSYIogxJAg7NcIAgU7ZmlB6G9uRuk3X4qktiFBiIlF7rGToqroQhAa6qWcMQtmeQpiMruhzvR3JDKZ+w5I6md4fIJyMcxCB8F5DuSmaRcBYtAdlVb7mxoxPjgoQkAzmnt7TQNa7qjWmbFnL5JWr7Mrseprbsx0bUz9O7MEgQGvLONtVAbbbF9EufD1S7z59A+GvnkHQdj0X/87ItLS5pwgkHDQpF579aLMJZVWNZEiz8X1zI5b73d+TRA084e4WwY729FdWSnEia5sWtRnfJ7w4mm1iBuClYtTt76D1C3bxA1qRBIWLEGQAA17MJ+3gRfeLCz6bCgTy9x5I8nlabccyjpTx7+7W9L2SBZoLqMUrUwuzWUUrXBTMMqlf1KkJEg+WAqliJTvLAIzPY3fFEGIikYai0cdphnd/S3Z0/v433sbGkRrn2lYupU3aW6lwt2xk+LWcHExNDWi9OsvRbbYSHTFTE0AM3319BtKmFKlkWJJ9PupGISZCyXpYm0XASJREPn0ujpRdOyprsBwV5emmS/1IUa9IwwWixzCUTm5yDvx3vwLJdnl1SXNes8+nxAEqrWWfvaJpj1g4AYVC8L/8Y+6+gC+tCDw/ZQaZ2pya/FjiR3ySPC471OFUHQgDMib/XAVl4SbOiz+GIOgR4i5lrmu+5oaRCm2q/QN+pobNaIwMgwWePJU12b6czULNa1TWfsPT+5TC0ZJkWbDyu/OovLMaYwN6hdAYrBZ3IpVoixoKGvpaSc38d9Z3Y9pa9R3d05zdPfnXOj8mMaGhyRgZrCzQ6pS9lRXS0GR4c4ObRMbHsIYTaQmCINWyztfDsnUjZu9zoc2MVz5iRmCwICv5E0UgDqhm3Zo9l2O33VWVeD1H35nmNbKxRuRki4bNzdL/RiEr8T0bKTKGBKfICWZyZ6ZhTFXjeZp1hTgRutJ0ErFIMxiFngQMNp9dETIt6MgW09tjWj7DzQ1iZQ6LQtSUIobqYmbqRTUWbcRK//kp5oo0SytY0YjNGNBoIuRrip+8zNNcXS8n/sqs4Uqz3ztNl2UKXPv/I//W1epz2cEQco896Lm2hVRJx0Wy4FB+iKJW3AwgliYiv/ExkmwMaz6BIEuJ4rfkQQZFVfyewuC06IhNiQC3NuYScUiVz11tTLG/oYGCbTnfxsftq9znbpAzutQygmkZ2LZD/9YNFv0gmD90oLAuIPam9dQ8e3XGGJxGJ3GCP/0XXs15bS4+FnsMh7+VG7v9tLRM9oomLermYtoORDGNzSCoZ4uufkwbqG/oVZSkBiMolvWdUoXxXy994CUfZ6rcZshCEzXlLTDk+8jafXa2W2iNhuanj3By1/+HINtrEng2iSLIStb0hzT39mhk8XQJoGt1CeQDAOdxlRSZkGQJMw0zdHMQuOBIjnIJnQtFEEwg6iJ39jz4+U7owWBm+nQoNxQhTDUVEnxLkbyT5Z8NiILlMxOSkHBBx+Ltc65uqSJ3pj6iUeCIMXKwpCyeRtW/+lP3RZRMvNCWjXLz3yD+pvX7EXDXM34JOIxhcux1ZHF4PRgXxEEhyjQ609+g+7KCuMbMIWBomNkj0ndtl2yTiS4zo2SJC9k9bduoPbqZbsolM44/TSLweM82kW+aDGQNT4yIpdQurZ76+vQU1mB3oY6DHW0SwVTw5LP9hexyFvm3oPIO/KubiyZXxIEDrrp0QMRSuqt1U97Y2Rm6tbtImAUlZ7pEVd/+oEU7mFO7yjzfLVa9awK2fLogeilS8U8g8YbacJqphe+h/iiZXMyLDMEgfnYtKywmBVN6Z5uyu46ytxfSukyiwEGAWe81cUvXykEQRQKncgag3hqb16XdFNRIdNpIbHxyD54WEqtmqmTMCfgOj1UEYS5Q1kKTDk20mFW/OtAV2WF6AAwwJGKe0YmaFrIKG28/Ec/RuAMxYk8jcwMQeCBHZ1XgJU/+TOpZOgcNOjpHY7/LiI8TU149YffSGVSoxoFvKlzX13907/SYjDmiCAM9/Wh+uJ51FAOmdLyBmSNVoPMPVqsEwPsDCW07f3U3BYtqDh3Gg03ry0aC4LhPDsIg+hG8AI6Khek7poqUfntLGHAfLtxZcuAAMQWrcCqP/lzSYd0djP4JUGQqlalb1D2zZdof/5MFxupYb56rQSs8aCcSdAe3+Oujj1fTKZqpHAo4h1jY8ZmS3vwkycxFimsMjoqHwoPORZ/YnqPXtMKbBSg4OSHSNm4yez+4NXvTBEEQNIxUzZuEZJGF8yMYkFsNrS/KUHJp79H5xv9IlXsPHN7U7a+IwWbIlNTdZQUB9D89LEUDqJSnF6T29jWd7Dswx+KiIjXa8bu23S7ZkSoh35Sc6qYiiB4WJoM/uU35sYFJ/FIk35pg+fZLQxUT+X6qDh3RiS5jdxR/M4S12/Cxr/9+zmzNpkhCPymaCnM3n9YvjOthL2XgZNTJM1ZeZbmdyNzPjNw8k9+JBZKPZeGrywIjB159bvfoIXl7Y0y1QICEF+wDKv/4q8kSNsMOaK7ifVdKs6c1iqMGqRG+trFwDkJS0pCHos17TvovWYF1znPE4mbMP4m2O/JapZGS93u3h5sb5cKtCLi19GuT8Kk38lY/zf/BfGFRS6WGb8kCGSTHFzZ6a8kutVoc6DMZPaBw0hn0F6Mh4pcTmDSSkFTDM2PRuxVKqglJWv1x8PDpz2Bf0/zJdPrDFXJgoIl0If+aGoYeGokHMx/Lf3qCylepNc0U3sOCinlu2Wbp0fO6L+bJQgSF5CahqwDWqAL/YJe+WvthXiqr1xC+TdfGqersShUdLRkBVCwimYx5/dww2Md99IvP0fbsydaJLRzs1hkLgs//FhUQb1xM0hFx8EBMePxJqZX/ISvYyoRi3Jx3s3MObXoi3/2z+hv0ZcQniz3/MEPkLB8hfekxo7BnFVzfFOiVXN8UWxQv95+A/7jP0X8suXe9Z9+6oF+ccUNtDYbPp/kMSoj03PRHWIhuiX9aHhwF2WnPjcsCcy1Hb9qNTb//f/l8u3P6KPS+SNTBIGXFF4KcvOlvgfXgFexCPYS67ScMHVcSJGb1PHw1HSs/au/kZRqPXVUnxAEkRRuxrOf/RM6y94Yq9iGhUm68Io/+rE2B56IkaNQ09XLqLp4DiMGRe/k4jdTF8P50/r4yR4VK9bJ3KPHvCZyJMGUEWdcga5bwF4OnXL9cfmFpjQxuI/TMk09IVZb5f+v14Jj47Dx7/4BCfw+nVw3/kkQAAnEqLt5HZVnTxua3GlFiC1aLpH0rLZo1sxNwtFVUy0bW+tT/aI7XIw0b5EN5hw4pPn/pjQqfTXcu4Paq1cwyM1dp8mNdeNm0f6n1KunGysPne6aGjksm+7d0ScIVquoYhW+//G8EwR2UAucLED2/oNIXrdeak54Gqfs0xS+6exEw91booAoDNegiaxzdraQA1ZgM3o+1RRptqy7cc2wII2jpkPhBx9LVopZFU5uqu1vtMqTnW9K9IWwSJjS0iWgzGycA+u/s7xrT02lgbJdgBQeYnony5rP1B8+FwSBG05nZblsQK1PHhneSsNTU7Hs4z9GygY7KfO00dvXgZjFm5sliK3+5nV9Amm1wJE1QgIp5bs9PF8rq/scr3777xhobTFUFIxbvgIb//YfPGaizJQwmCUIQjzDwqVoEfeS6KwccyTBTg566mpQffE7tDx9LKJuhpH9QUEiCrfur/8TgiMidXH0BUHgvJL0Ff/8n9FdWW64bkgKMnbtkyA6PXfHNNztaebtpSVS6pkXLHeWPq8JQk+PuEErTn8lsS16jYq4TEelG9TbSqDMfGu4dxcV357S1IOdXS60TAYGSHmBVaxumeL5POGFs7euFuXffiVpkkZuJco0awRhxWwJwkYRqonNzZvpN6H/dzoftCzEinIJVGx5+shQmZBV/qgdnrl3nyhEkSQYHlCTNdLbxexSc+Wi4UFCJsUPMe/kB0jf+o6uSZsfHPXhe6oqDMfF2z7rV6Ss3yTyl+42L04oTc682XSWvNQnCOxXTh4K3/sIqZu3+HYe7E8za0FwvJw35ejsXEnBTFy9VjZUPV+hWM6YBjoyImIoxK/m0gUMtre6zXsW98LmrVL3QSqvGRwAjOVofvYElec4J5WGxZSoz5+2fSey9+4XCxHjG4ye6dC36G2oF+JBpcYxbrK6hDBUKnaK6mZBoSmiRF8h/cIdL18YbJQWkQhmznL+8RMIi0vQbg96pVn57wywmROCwA2ooU4IAtNTjczWdEWx/9n7Dkmqrki9muk/b4S9vai9cQ2lX3xi7DdnVdHlqyT9NXHFSkN8HFNG2WaS+/Kv3FkQApC4fgM2/e1/Fbn1uWjeEAS5sEREImnNWnE3sBhVMG/VVqtLsh+/MymENNCPnro6Wbctz5hG2OP2O2Mp9MIPfoBMBmYaxF34hCBMTIjl9vm//6sWoGiQvcA9hLV2GA9BISt3+zpjuWjNpZoty72P9HS7nTKvCAIvrIODaHp4X+TgjUrJM3A7fsVKUVCl/DxJjfTZea3rVArlnssLyItf/Ztk3+hXt9QqA+ccPSZz5OkyJgSeZ+iZr6UMgJEFgemO6//z/474wmWzIAihYUhcs06CvBjM4LumpbDomXt5S2ckKm9tTAvUPzG1D4cBbBQRouqgo7711E1IMxFrUc2UG+VGL880CI6hGTv9nV1CiOjzdm5SQKa6UtwgLbw9uQ2uWyVVD3loyA3HedHY/aPDvRzvVTngjBYhD2MuQpY9Tli52nfTMOVJ3hIE/ik/ZsrW8pbDksphiYnygVC/QXawCZsEZNIyRFbb/OSRVCwb6elxK0tNohaekoa8o8clvdFtJT5WhmxqRMX5M2i6e1u7Lek1i0UCnlgulQeXVPxjAJSTohjneLhf62/jvTtofvzAuICKPWedFqfMXXsRFhfn2SQKSH9Lvz6FxtvGBcO4XujfTFyzAXHLlklRL6uVeeD2ZrWIxrpULTSoMzEXBIHf1GBbm9zYaq5cMDzA2X9KvSat3ygbJzd7pg/bRWFlEAGhIQhjNbrQ6fUGuGZanj3Bq9/9CoO87RvNZ0ysRPtn7NyNqLR0zZroLCZmj/Xprq1G1Xfn5Ls1ug3y9pq+cy9W/vhPzd3WZ/AlekUQ+HyLNs8sksaxUoadlk26tRj3Qt+1BGWODEu2BmV6ebmi0I4nuV4pCrVqrYyXmQJGh7EvCAL3XGZtPfu3fxKXqmF8id0/Xvjex1KgbVJF1nHgcu/mvk7VwcYGsUY23r1jD3p0X/HRW4LAPZES0HSLSO0eg3XIy0xc0TKxxDCdWipRTiEI3M+YieasYCjfUkcbiv/939Dxoti4MnBgkJxxjHWIX7bC+DwZH8NgZxfq79xA3fWrkg2oW7SKQYq0SvzpX0gc2YyDFHnLop+PB3EINz8fNW74MXmFEiDh3LgYKQzBDaj50X23VdysISEIT0yWugWcILIiuanAKv5i+o/7GhvR9uq51Eug7jds+ouIB0VUTp5m0t68xTClZrCjHXU3rqP22iXNDWJANsQvnZ0jVoTYomVyGAWG2TewcS2Pmx80leFIXJiOZfQs+uLTtu9GHgWKUlyJiy+mZSYEQd5rtcpmxQMgIi1DNmpaTZivPDE2LtG1/U0NUo55uLcHNgOf2OQYeGuKjELqlnckDced9cDxNySBrS+KZc10l5cZF/VhbnVoKCKS0xC3bLn4x1na2xoQJEJNNhv7S3JQIwpvTB+SynJGhDIsXAh07tHjQgTNVrckJjU3rqDsi8/c1pCQQDwGKLEseEgIAoNDJnViSMJowcnef0Ai3fU297kgCMScOgPiCqSbyE01U5Yt1sqaB4luiTU4CPx3jusvU1CLfvAjxDiV3uWmRusNo9KbqHFhUH+BY6ZLMG7ZCnFlsNgZD3nixQ1aNEmGBiWWoenBfSEd7m7UJLgicbx3/6wFioy+Sa8Jgv1BPGT4XdBtycOcfmkeRLQc0BXGfYkyvXR98ubrUURHyG2yWL6Y1unOnO8TggBIRsnrT34npJsqmEaNBznXRvr2HUhYsUq7NQdy7UBSx2k15KWP88lb8kh3t+G+PvUd3hIEcUtXV+HFr34uFmNjQSetmijPHp6ZstalvLj2dhIIpqmnbd7q4g7jXNXduo6Kb04ZxsbINhsULBYkqiDy1h8cwyJMJCJW6ZdD0Zfki+cmLzhGF1i6wdO270LhifcQLnVjpktrm45BkCI39k0KTg+ZzaFEps+UPfpt9RpvgUx5rLr4neQyu13s9vxzbvz8gFjBjX2mohpT6ciipeiHG+12ue0kJsmNP2f/QbFOGDWHG4Q+9NZnTwxvI0L+WYI2LExuSVGZ2SLAEhAchPHRMU0lq6EOffW1suCNFp8EBaZnyG2amvGzre5mOK7RUTTev4uSzz4x1CVwO+f2krvah+FYcDaxIkxMaJkfZhrJBq0lHC83B7fWA8cDhYl3yKFVf/MqBlpa9AMWHZstTbSsqsk1ExWDoFBGiWvWDh7enA8qM7pbdzz0orJzkXvoqJS+9ugvnTJ4Ppfqdi9/80uJLncbwjxth/s+kp0EgbeAAmpSrFn3VgkCb28ktiws0/HayE3iNNs67gV+E4xWj2dlUKdAKZI+uo7Kvvpcyr+7E9ThXNCFxFgQ1hKQwNmAAMkJJ4nvrauWeBd3uvZyeCxbgZVM/cr0UArYzEI2+I1pgkC89CoS2jM3NEJoXw92a6TUMTAhlsN9nRilbNqKog8+Fhl3d8GAviIIDBSl1k3VuW/F3eiprHFgRKQERJMQBYbRVasVNeKcUqVWFDSnEHiHBomRrozXBIFWj7YWVJz9VrRWTFVZlI1/esYJq/bS5czUTYlTmPLfua77JBX11+h48Vy7kBg0izVArIVCEjOy5Dzh2h8fGRULB88TXsbkPDHIABLLZEoqij78IVLWb9QNrDRPEGbxIbj7Ux7mBe/9AEXvf6D7M4JGRlx/+6YEKg20NJuq6iXATwXfbo5y1xcCRvNPypZtEjFPi4mngKfhvl60Pnsq8QwMuDEKBHG8l+9g0J2YBO3NNj4hH7Mn8kP3BOtCMFJ2xmmFJubRjAVBxkFfuN1s62vtdDJwxm9k7T+I9G3bNTOq2eA2lkxtqBf3FBk0g35MbZZO/lxPVRs1Nh+EiJQ0iWkgaQtPZOGq6SzcLeQMxGvlxnMa9devahHMXjYShJiCQhSe/FBMsW/TgiDfZ3sbqi99h9prV9wGwbkbVkRmFtb+xV/r+kEd76i7rYnfDHe0u5fk5UXBapfjdewDNn5jLBU87r7SqtymE5F76Ji4U0UDweS683LaPFdztF8s6Fbkxm+jRLsvG8kBY7jWbxSTNa0unoJ2fUUQHNbhN1/+BzpfvzJVmZNET/4hGeK5a1fSpArtVJ899yVak3mhYOCypLI6ESxvCYJkvwwOoqX4KcpOfYr+xiZze4rTfDGQMe/dE8jae8CFIDjcJaxYWnXutNz8jeIGpp4nTKkWd5qdSNJibhvzQBDtc5/6zg7kHn5XMoD0rJ5+TxAIBAsdkRg03L0jWvv83zMqfuTm4xJyEBMrB3DWvgOIyco2JWUsvqP2djTev6O5BxoapjFZn3zPNLWLb2u5ZAswY4PEaq6aGYLATYtmSR6Q9A0ztsAnJIGmf97IM7ORuWcf0ra+I9Ygs+TAgQktAL21Nai9cVV8zbxhmC4XaxJYmvqYapu6dRsytu2wSzhPiQ0w+RwpovPqJUq/+kwLrjRpYXE8fj4JAvvAPHb2nySBlUxnUsXUHUGQPWBsVOp11N24iuaH9+xFfdz7mU3C//3P7JsmLwiF733okyql7vrg2YJgQWBEuHwLYwOD6G+s86jbYnbMJLGBkRFIXL1OguooWW9GEMpXBIH7JveMhru3JYuJKX4eXSEmBkcCwX0pedMWIYKyVtrbXIL+vCYI9sBPxk5UX7mIhlvXJRDSY+0IbwiCvUQ1rd2N925ICisJAAANMElEQVSj9tplcTd7IgkmYJn+E3ssC8MFqK1Bt6RRBuCCIAjaBjEmviZGkjY/eoj+pnox83g7QS5g2t0SIXHxErSWtXufBGGa9SFrBGZcDsnmJ4/R9PCeMD/61Yxy5b2ZUBIX+q1oQs7cvU9uiDMSS/HipWYIAiPr41euFqzo+qG/i+JOs5kPkoCAcG1DzHhnp0YOTKStGQ2NBy/zihm8RP8k52hGJVOdXsA5oUWDJk9uRPQnMmXSnfyrW/iZ79/bi6anj1B75ZJoLbBGhxkLBp873wSB/WQsAtc/STJjTLj5e7PheyIIHKdol9TXof72DUnboinVkzS52WXPuaOp3RGIHZuT5/E2bfbZRr/zSBDswbSp23YIWWm8dwt9DfUzImCTfRBXcYDoivCiwaBaWiPNpoj7iiCwP9wreMOvunBeSj0Pd3d6TY6nYstDn5VlkzdslqwnprBWXzinuaadMiVmQhAca7C7plosWe2vXmC4q8OrNejWgmAfjPY99aLxwV3JQKHrmZbp2eytDpzkPAkPR0x+IbL2HkTiylUSq2MUlLpgCILjIGbuPH2ezY8fSrAINyZKFsthbKIQyyRQdj8584vpSuDGQPGcqIwMr8iB43mS19/VBQrftDx+iE4GQvZ2y+KZycRKvEdQkASgxBUsQ9rWbeKHNyUYMsudyxRBiIgQawvzfnlj5AdOJUTNF8iiOOZvd+KuCAzUapUXLkPqpi1IXLl6VuTAAQH7wk2o5dlTSatk0CFjUTQfrfk+8nmOflIbnjcupmAlrl4jm7c3hFJveuRG1dcnN3FuDNzUmMUzMaxtDO7W93wTBMdmz8BTrntabLrKy2TzlJgf9t+BtcE3aoYgODZoHpLMguE+QD/raG/fzCyKjriq4GCpvUAJ7/Sde0ToypP66Sw/MflzMwSBAnBZh46KEBkVR5nC111BmWhejrwoi2wnBiQCYcnJEmNBXQ0qFHojGOZLguAoaczgcVqG2l4WiyVB9g8vvk3ZK4ODJTCdlzy6JJlR1VleJoWpOkqYKTE97mmmBEHcACMjkjXR9PCB9JnS7gyAFULMtS4fhL4cohmCoP25th80Fz9By2NmopSLxWKy4JgXZ93UvYsudFoMqCfD/8ssGMP0Ue55NraJCUn9o+aAFij19hpN5XnH30fBsROmXsq+sioZb4aceNYu4KIi+5TboWymjELXUmCmEgJHoKVEAUdEiimKAjw0s0kKIsFyUwTEUwclZ35oSKKuGfnOSWWtekooiySzbJSSpexq8rL7kCTam4dlbKxU2orJLxCmz01LPuQ58odOHZtZgsCAvLwjxyVQhuum7eULsSTQLDbS1/P9IeyYD/tLHPEhjqDX4KgYyY+PK1wuRC0qM1MryOKjsRJ35tMz55qHSk9NlQQ3yQfnkMqe4JxMJwx8v/TBQdaiosWlEJtXIHoPJJaS6zyLNTMV98n109iArooysUSxZPiovcCQWMx0Ao5EaS+vQER0uFZ0YxCam+xldRlMO6S7lEMZuX9ci2T//9s7t5+4qiiM71AGBhiw5dLSTgFBE0OradRoUqtvFdpnH4wP/oXGGI0xMUZ9NDYxxl5i1EZoG2xroYVhoNOCxfy+fc7MMMxwZuYwMAfWaShJey57f2vvtb+197o0Q3hCD+r8wwcqQgbOWHFktGPO4l+h45MqurM3m3XnPvnUDU69GoknMqMSINVRseII58MZVbsWmmfM/SqKOpAnc0y7QOm0IgDYCRqaPqccFjjpKaXvHo293XRGvQRh/MMr8hFgXvpaEtcU3UX+ENWTKCNgxbP4Yl/9+NWR4NCIe2li0pEAihBJrG3l1GjgAntke/vrL93y7T8c/lOVF+ORHc/JWZyLp5V2vOYV5KZZX1p0i7duKl362v0FRSPILwuiUKE/igsecuzs1M5P/9iYwqsZ/2H5eSz9uW+/0e5h5bEdSYc4sn3to4+9r1llSOxumAQp1zFWISEr8+j5ByqYtJFf9VV6idCqQnKw3icuz7qz730gHb+bjvM5WAqqLfHo+q8i3+yiM5/CHYVwnduWNwHZ84dqlwosSClCCwd55H7yjQu+6BUhmBH99gRha8utzM+riIcKZ+zjhZXMAj1y/vX6vxoIiKps+CPk7t51+ftUsHoiqwtFgVXLzoJCGZkgqZRLZTLKEIYFiGMZ8cSZM2dcD96kdVTeq7eBHDnQBgZN7s6cYt0Ljx+rbd4rfkMWj59cWz7CIZ3W1g9OQ4SR9mfH3fHJKQ12/r0ZhV1veyvva4ggzFxVQilP3AgLXHDLf/+lrVDyrbNVRqw5PgFMdL89313sa3pw0GVGs25gctINZMcU6dEKBa16F8HCkl9Y0E4CVgC7Phv5nM548RrmrNtt+clFOxkvHHOIsNHO8QnXNzrqC8coSqPBvPhRQgkcr5ABi6DGztKSdsoY795Te/tL/LnriCzgzOnqiaQIo3104zeVQa51psn8GD5/wZ2YmopUHLsqfJwBnz93z9fyUm4iY6s5hRrjbFctvBjLhiOl3uGRur5drF+SW/FV7O7ddesPH8pQwPJi4ZQ8Q6fEoGQw44vjMcoG44xI9MlA9qy+Sy6GhhxMo2QZ8f+NEISp2asKt2QeMa+W5+Zc7t68FgxKJStCC3IUEF6MDHImEGbM+O0dGpG+g9wShqwQ8EYWxaAv4bEAO3KEjFZbBJW7ZPikxiPkK/I7AQFAN5LhNndnXl74mpsa91jnpbo5zDuOXbHGqVMxMDau/Bo4WUp/HDsmA4wx9+jmDRHVSmKtNo6ccqNvvi1924wxIqdXcrs8faocBpBUHKI30HccEQbkpnwYqIbQ9Dl3YuoV+ZVF6o8gKgWCDfHGryr/4J+STlgjMu/Ztp3qcD3h/cgejFjnSDNPyGh3f3/duksEgQ6EhYsa2dqJOT/845CczlTDTJZHtVMQCGmzsO4KKysKYVJ4WuGp355lUVLMe4/O3WBSSlSR6fdJLPCKbWKiRPY9LOzz36a2A4nE4AeGScUtJnq47aUdjd4+19WfcdR/ZwLDihnoLVmEIhrfDEEAY8mD2ORnBeV1wLudZFRaGEJZBGSIxYjqij1Dg647M+AT5+B5vtcLbkVffRt9FU1CrYjH5iybRYWJRju9hYISSstx1f+8JPIWKtaWjJnKtgaWoRY5KVGsqerCU4GozlRNIhnOE8JMaxaDCRxE92rMhUcL3hIMrPpa7YeQKcNiY9a7vhFUbGTeI092hgiPJgyOXBtScThmdaflmAc5QKY+HwnJvBh7jX03cv7XcUPDBCHVpbdKlkFeB/qr3ZPVnMa0jltfvBCWqT4WiAHVqWGRUF6IsK91tK/WLS+kcwn9rX1EFxa5a8SwCfUHFjjkGOfvwsoTt5lfk0HlaxT49YKILpyX0R89g8MysCrHbYhTrZTLzJlj5MmIqf/Ddah4bFllx6OIZbDe1SoAWAvz4jc2N91GoeANzpUnfq0LyHBIgjC6Q3KA3kL27I6Dm9a7BnRskSDEGC9t8WgRwHC7rTKsMThv1DlycTt/j62/2tJ1TCoNoLBd5WdIisjkL9+2YhsPCNlmCUKxuWU1y6XAleKNH08I26WvpQWs7Iy/fAHr4IiBsNQO/zumIjkgcR6Zz+6Up5bTEiEKdUDwW2mKG1CWew1kswRh2zxjsYb06YjMH1/6ecZKFIxftpkPgAA1jVdZCeOS/03ZuX7Z0Z+OKZPUt6ZBKT0oOQfrnMenTO6ybnyIP7ugWkti6K5DQxD2AHd7RYBAbIJgSBoChkAkArEJQuQX7AZDIB4CRhDi4XconzaCcCjFap1qMwSMILSZQKw5OxAwgmCDYgcCRhBsUBgCrUfACELrMbYvxEPACEI8/A7l00YQDqVYrVNthoARhDYTiDXHdhBsDEQjYAQhGiO7wxCIi4ARhLgI2vOtRsB2EFqNcALfbwQhgUKzJicOASMIiRPZkWuwEYQjJ/LoDhtBiMbI7jAE4iJgBCEugvZ8qxEwgtBqhBP4fiMICRSaNTlxCBhBSJzIjlyDjSAcOZFHd9gIQjRGdochEBcBIwhxEbTnW42AEYRWI5zA9xtBSKDQrMmJQ8AIQuJEduQabAThyIk8usNGEKIxsjsMgbgIGEGIi6A932oEjCC0GuEEvl8E4Zdr7s/PP3Pri/9W7QHFpU699Y57eWbWDZwdP9Cc9gmE2JpsCLj1x0vu9ldfuPs//6TictWu9PFBN3F5xk3OXFFhIbsMgf1EwAjCfqKdkG9R/Wzp91tu/vvvVJGx2kUVvKHp8y578ZLrOzVqBCEhsrVmtg8Chdyyu/PjD27xxnWVB668KCRF1cLT71502Uvvq9yzXYbAfiJgBGE/0U7Kt7a2VEK0sJpTffmqV0eHSqx29WV8qe4DrIqXFFitnYZAOQKUMH6Wo1zvuq92WuWikmiqr991ZTJGwm347DsCRhD2HfIEfbCG0trWAyMGCRKoNbXtELA51nYisQaVEDCCYKPBEDAEDAFDwBAwBHYg8D+ev73MGg3QjwAAAABJRU5ErkJggg==;" parent="1" vertex="1">
                    <mxGeometry x="800" y="72" width="320" height="112" as="geometry"/>
                </mxCell>
            </root>
        </mxGraphModel>
    </diagram>
</mxfile>